<svg xmlns="http://www.w3.org/2000/svg" viewBox="0 0 64 80" x="0px" y="0px"><title>clear, eraser, rubber, delete, school</title><g><path d="M61.2915,28.1221a5.8371,5.8371,0,0,0,0-8.2451L45.1226,3.708a5.8294,5.8294,0,0,0-8.2452,0L2.7085,37.877a5.8371,5.8371,0,0,0,0,8.2451L18.293,61.707A1,1,0,0,0,19,62H56a1,1,0,0,0,0-2H29.4141C34.566,54.8479,56.5486,32.8651,61.2915,28.1221ZM59.8774,26.708,32,54.5859,27.4141,50,58,19.4138l1.8772,1.8772A3.8352,3.8352,0,0,1,59.8774,26.708ZM56.5862,18,26,48.5859,16.4141,39,47,8.4138ZM38.2915,5.1221a3.9219,3.9219,0,0,1,5.417,0L45.5862,7,15,37.5859,10.4138,33ZM4.1226,44.708a3.8352,3.8352,0,0,1,0-5.417L9,34.4138,30.5859,56l-4,4H19.4141Z"/></g><text x="0" y="79" fill="#000000" font-size="5px" font-weight="bold" font-family="'Helvetica Neue', Helvetica, Arial-Unicode, Arial, Sans-serif">Created by Kmg Design</text><text x="0" y="84" fill="#000000" font-size="5px" font-weight="bold" font-family="'Helvetica Neue', Helvetica, Arial-Unicode, Arial, Sans-serif">from the Noun Project</text></svg>