<svg id="그룹_1" data-name="그룹 1" xmlns="http://www.w3.org/2000/svg" width="807.063" height="517.116" viewBox="0 0 807.063 517.116">
  <rect id="사각형_4" data-name="사각형 4" width="806.719" height="516.659" transform="translate(0.344 0.457)" fill="#e6e6e6"/>
  <rect id="사각형_5" data-name="사각형 5" width="776.471" height="456" transform="translate(15.468 48)" fill="#fff"/>
  <rect id="사각형_6" data-name="사각형 6" width="806.719" height="34.272" fill="#6c63ff"/>
  <circle id="타원_1" data-name="타원 1" cx="6.352" cy="6.352" r="6.352" transform="translate(19.116 11.17)" fill="#fff"/>
  <circle id="타원_2" data-name="타원 2" cx="6.352" cy="6.352" r="6.352" transform="translate(43.227 11.17)" fill="#fff"/>
  <circle id="타원_3" data-name="타원 3" cx="6.352" cy="6.352" r="6.352" transform="translate(67.338 11.17)" fill="#fff"/>
  <path id="패스_1" data-name="패스 1" d="M454.49,367.594s2.916,40.238,1.587,42.6,23.349,44.87,23.349,44.87l39.454-36.976s-2.389-51.148.152-53.456S454.49,367.594,454.49,367.594Z" transform="translate(-196.468 -191.442)" fill="#a0616a"/>
  <circle id="타원_4" data-name="타원 4" cx="46.119" cy="46.119" r="46.119" transform="translate(245.454 114.643)" fill="#a0616a"/>
  <path id="패스_2" data-name="패스 2" d="M484.468,426.15l-4.732-2.659-23.348-21.029s-2.326-.867-2.677,6.406l-.351,7.273-15.074,10.207-.692,165.216L541.847,596.6l4.387-166.252-23.542-15.718-4.314-9.2-26.519,18.642Z" transform="translate(-196.468 -191.442)" fill="#fff"/>
  <path id="패스_3" data-name="패스 3" d="M588.2,442.1l-11.53,168.176H402.57c-22.185-26.264-39.9-161.4-21-165.409,6.177-2.136,48.061-15.292,48.061-15.292s12.513-7.9,16.506-14.989a54.954,54.954,0,0,1,8.932-11.518l.024-.024.012-.024c.1-.1.182-.194.279-.279a.163.163,0,0,1,.085-.073c.121-.133.243-.255.376-.376v.182l-.886,30.754,33.351,114.617s9.394-68.8,18.933-90.211c5.376-12.064,8.192-26.955,9.624-37.66,1.1-8.289,1.384-14.054,1.384-14.054s.049.061.133.17v.012a.012.012,0,0,0,.012.012c.146.182.376.485.716.9l.012.012c2.791,3.5,11.748,14.078,17.816,14.37,7.27.352,27.234,14.685,27.234,14.685C573.938,435.324,588.2,442.1,588.2,442.1Z" transform="translate(-196.468 -191.442)" fill="#2f2e41"/>
  <path id="패스_4" data-name="패스 4" d="M532.167,570.617s13.136-45.538,32.3-39.752-1.874,38.792-1.874,38.792Z" transform="translate(-196.468 -191.442)" fill="#a0616a"/>
  <path id="패스_5" data-name="패스 5" d="M455.844,607.607s-42.829-20.295-34.034-38.275,37.984,8.094,37.984,8.094Z" transform="translate(-196.468 -191.442)" fill="#a0616a"/>
  <path id="패스_6" data-name="패스 6" d="M473,610.272H462.719a104.284,104.284,0,0,0-12.549-2.306c-.971-.049-1.286-1.566-1.165-3.969a75.454,75.454,0,0,1,1.954-11.785c1.469-6.554,3.435-13.641,4.7-18.156v-.012c.74-2.634,1.226-4.381,1.238-4.636.036-.8,6.76.3,11.4,1.153,2.439.449,4.3.825,4.3.825l.231,21.882Z" transform="translate(-196.468 -191.442)" fill="#fff"/>
  <path id="패스_7" data-name="패스 7" d="M610.2,590.186c-2.961,8.386-5.1,15.025-6.845,20.086H468.726c-.449-4.636-1.02-10.984-1.384-17.27-.595-10.061-.692-19.965.947-22.44a1.158,1.158,0,0,1,.728-.57c3.143-.619,38.655-1.177,63.8-1.505,3.5-.036,6.784-.073,9.77-.109,9.066-.109,15.207-.17,15.207-.17s.485-16.6,1.966-37.769c2.609-37.211,8.313-88.536,19.94-88.754l8.5.413s4.842.231,6.918,7.622S618.649,566.289,610.2,590.186Z" transform="translate(-196.468 -191.442)" fill="#2f2e41"/>
  <path id="패스_8" data-name="패스 8" d="M450.27,309l-8.587-3.6S460.841,288,486.192,290.821l-6.806-7.5s17.788-5.512,32.874,11.942c7.93,9.175,17.1,19.953,22.562,31.858l9.36.452L539.9,335.2l13.3,8.474-13.966-2.081a39.473,39.473,0,0,1-2.305,20.172l-3.6,8.587s-11.485-26.041-11.331-29.219l-.384,7.946s-8.4-7.574-8.165-12.341l-5.036,5.332-1.961-8.856-29.822,7.32,5.113-6.921-18.391,1.5,7.574-8.395s-21.158,9.332-22.375,18.034-12.084,19.327-12.084,19.327l-4.384-8.176S426.651,319.8,450.27,309Z" transform="translate(-196.468 -191.442)" fill="#2f2e41"/>
  <path id="패스_9" data-name="패스 9" d="M894.131,611.272H286.2V268.442H894.131Zm-605.928-2H892.131V270.442H288.2Z" transform="translate(-196.468 -191.442)" fill="#e6e6e6"/>
  <path id="패스_10" data-name="패스 10" d="M776.275,310.95c-5.748-9.713-17.121-10.166-17.121-10.166s-11.082-1.417-18.191,13.376c-6.626,13.788-15.771,27.1-1.472,30.329l2.583-8.039,1.6,8.637a55.954,55.954,0,0,0,6.118.1c15.313-.494,29.9.145,29.427-5.35C778.593,332.537,781.806,320.3,776.275,310.95Z" transform="translate(-196.468 -191.442)" fill="#2f2e41"/>
  <path id="패스_11" data-name="패스 11" d="M755.069,344.043a6.065,6.065,0,0,1-.524,3.2c-1.077,1.882-3.706,2.163-5.288,3.646-1.663,1.56-1.851,4.091-1.931,6.369a17.6,17.6,0,0,0,.716,7.062,17.164,17.164,0,0,0,2.006,3.446q1.448,2.088,2.923,4.157a17.947,17.947,0,0,0,1.75,2.2,14.909,14.909,0,0,0,6.589,3.5,8.236,8.236,0,0,0,4.787.317,9.166,9.166,0,0,0,2.784-1.712,14.919,14.919,0,0,0,3.151-3.054,14.221,14.221,0,0,0,1.927-6.513,140.54,140.54,0,0,0,.926-20.247,4.961,4.961,0,0,0-.387-2.151c-.8-1.564-2.946-1.9-4.076-3.243-.966-1.15-1.006-2.791-1-4.293l.021-3.824a1.6,1.6,0,0,0-.186-.932,1.578,1.578,0,0,0-1.1-.512,36.971,36.971,0,0,0-7.194-.481c-1.952.06-5.7-.1-7.386.984-1.532.987.386,3.713.741,5.244A34.166,34.166,0,0,1,755.069,344.043Z" transform="translate(-196.468 -191.442)" fill="#ffb8b8"/>
  <circle id="타원_5" data-name="타원 5" cx="15.455" cy="15.455" r="15.455" transform="translate(547.626 115.125)" fill="#ffb8b8"/>
  <path id="패스_12" data-name="패스 12" d="M750.733,350.452c-1.67-.969-3.938-.184-5.154,1.315a9.339,9.339,0,0,0-1.7,5.438,35.51,35.51,0,0,1-.413,5.769c-.928,4.17-4.373,7.6-4.629,11.862-.252,4.2,2.625,7.85,4.04,11.807a19.689,19.689,0,0,1,1.055,7.685,3.082,3.082,0,0,0,.495,2.4,2.735,2.735,0,0,0,1.07.576c6.829,2.4,14.206,2.61,21.443,2.794l11.953.3a3.81,3.81,0,0,0,2.111-.354c1.072-.658,1.216-2.131,1.234-3.389.157-10.833-.3-21.664-.764-32.489a68.975,68.975,0,0,0-1.169-11.707,3.359,3.359,0,0,0-1.461-2.5,3.225,3.225,0,0,0-2.464.165c-3.7,1.378-15.48,6.659-16.641,4.779C758.4,352.728,750.077,352.085,750.733,350.452Z" transform="translate(-196.468 -191.442)" fill="#fff"/>
  <path id="패스_13" data-name="패스 13" d="M751.335,350.719c-.3.215-.6.443-.891.684a17.248,17.248,0,0,0-2.871,3.023,23.952,23.952,0,0,0-3.251,6.135,59.4,59.4,0,0,0-2.592,11.966,28.881,28.881,0,0,0-.41,4.509c.089,5.557,3.374,10.7,3.378,16.264,0,.211,0,.418-.017.629a18.261,18.261,0,0,1-.321,2.711c-.241,1.3-.587,2.592-.929,3.876a37.016,37.016,0,0,1-3.471,9.378c-.169.287-.351.57-.536.844H727.6c.093-.283.19-.562.283-.844q3.021-8.949,6.038-17.894c.616-1.824,1.233-3.657,1.668-5.531a52.393,52.393,0,0,0,1.018-7.022q.7-7.341.916-14.711a17.888,17.888,0,0,1,.663-5.24,17.142,17.142,0,0,1,2.1-3.834l3.661-5.51a8.464,8.464,0,0,1,2.44-2.711c.874-.536,1.913-.73,2.833-1.182a14.483,14.483,0,0,0,1.664-1.1c1.376-.975,2.994-2,4.18-1a2.327,2.327,0,0,1,.49.562,2.813,2.813,0,0,1,.182.325C756.879,347.506,752.868,349.634,751.335,350.719Z" transform="translate(-196.468 -191.442)" fill="#2f2e41"/>
  <path id="패스_14" data-name="패스 14" d="M790.282,410.74H735.527c.3-.27.587-.553.87-.844.042-.042.08-.084.122-.127,2.094-2.174,2.571-4.847,3.623-7.676q1.184-3.2,2.369-6.393a3.307,3.307,0,0,1,.6-1.136,1.873,1.873,0,0,1,.832-.5,3.227,3.227,0,0,1,.735-.135,8.186,8.186,0,0,1,1.068,0q14.738.76,29.455,1.854l3.8.291c1.034.768,2.056,1.583,3.032,2.445a27.136,27.136,0,0,1,7.495,9.944c.19.469.363.946.507,1.431C790.13,410.174,790.21,410.457,790.282,410.74Z" transform="translate(-196.468 -191.442)" fill="#2f2e41"/>
  <path id="패스_15" data-name="패스 15" d="M577.265,118.572l-11.235-5.885-15.516,2.407-3.21,14.179,7.991-.307,2.232-5.209v5.122l3.688-.141,2.14-8.293,1.337,8.828,13.108-.268Z" fill="#2f2e41"/>
  <path id="패스_16" data-name="패스 16" d="M790.282,410.74H777.919c-.089-.279-.173-.562-.253-.844a66.4,66.4,0,0,1-1.917-9.576c-.131-.925-.245-1.854-.351-2.778-.068-.587-.131-1.17-.194-1.756-.709-6.519-1.254-13.1-3.247-19.342-.241-.756-.5-1.507-.756-2.259a26.646,26.646,0,0,1-1.1-3.973c-.54-3.091-.135-6.291-.692-9.378-.312-1.723-.933-3.239-1.309-4.818a9.759,9.759,0,0,1-.279-2.918,6.284,6.284,0,0,1,3.289-1.63,1.733,1.733,0,0,0,1.165-.469,1.463,1.463,0,0,0,.194-.861,41.356,41.356,0,0,0-.342-5.958c-.084-.692-.19-1.385-.317-2.073,0-.034-.013-.063-.017-.1a8.178,8.178,0,0,1,3.31-.448c1.22,0,2.436,0,3.652.008q3.376.013,6.751.021a14.864,14.864,0,0,1,6.165.891,9.812,9.812,0,0,1,4.45,4.56,26.251,26.251,0,0,1,2.01,6.152,8.237,8.237,0,0,1,.211,1.778c.093,4.754-3.454,9.542-3.809,14.4-.114,1.575.017,3.163-.127,4.737s-.566,3.125-.642,4.7c0,.08-.008.165-.008.245a16.929,16.929,0,0,0,1.246,6.008c1.072,3.01,2.377,5.928,3.724,8.829,1.3,2.808,2.635,5.6,3.834,8.449a14.465,14.465,0,0,1,1.246,4.176,5.8,5.8,0,0,1-.638,3.374,3.958,3.958,0,0,1-.5.714l-.008.008c-.038.042-.076.084-.114.122Z" transform="translate(-196.468 -191.442)" fill="#2f2e41"/>
  <path id="패스_17" data-name="패스 17" d="M802.058,406.408a4.681,4.681,0,0,1-.452,1.617c-.021.051-.042.1-.063.148-.245.578-.494,1.148-.752,1.723-.127.279-.253.562-.384.844h-6.992a7.825,7.825,0,0,0,.7-.844c1.073-1.49,1.693-3.3,2.787-4.911a3.786,3.786,0,0,1,.511-.608C799.166,402.679,802.168,403.026,802.058,406.408Z" transform="translate(-196.468 -191.442)" fill="#ffb8b8"/>
  <path id="패스_18" data-name="패스 18" d="M806.61,410.74a8.3,8.3,0,0,0,.224-.844c.051-.224.093-.443.127-.667.224-1.474.22-2.981.57-4.429.494-2.073,1.976-4.526.756-6.27a6.625,6.625,0,0,0,2.622-1.174,2.255,2.255,0,0,0,.709-2.592c-.435-.849-1.613-1.41-1.452-2.352a2.244,2.244,0,0,1,.414-.819,6.135,6.135,0,0,0-.106-6.73c-.384-.549-.857-1.03-1.208-1.6a9.569,9.569,0,0,1-.874-2.225,41.448,41.448,0,0,0-5.333-11.054,7.335,7.335,0,0,1-1.178-2.179,9,9,0,0,1-.093-2.588,17.351,17.351,0,0,0-3.027-9.614c-.135-.211-.274-.418-.414-.625a55.692,55.692,0,0,0-6.165-7.182,3.953,3.953,0,0,0-2.17,1.575,4.681,4.681,0,0,0-.418,1.571c-.6,4.18-1.119,8.386-1.524,12.587a30.77,30.77,0,0,0-.169,6.384,10.306,10.306,0,0,0,2.4,5.818c.9.988,2.039,1.723,3.015,2.635q.234.222.456.456a14.949,14.949,0,0,1,1.862,2.445,21.077,21.077,0,0,1,3.1,12.637,20.532,20.532,0,0,1-.317,2.381,9.848,9.848,0,0,1-1.123,3.209c-.443.73-1.026,1.368-1.427,2.124a2.685,2.685,0,0,0-.194,2.453,5,5,0,0,1,1.744.312,7.4,7.4,0,0,1,3.293,2.512,10.952,10.952,0,0,1,.836,1.284,15.814,15.814,0,0,1,.836,1.723c.1.232.2.473.291.714a.7.7,0,0,1,.051.131Z" transform="translate(-196.468 -191.442)" fill="#2f2e41"/>
  <path id="패스_19" data-name="패스 19" d="M874,412.315H655.333V288.442H874Zm-216.664-2H872V290.442H657.333Z" transform="translate(-196.468 -191.442)" fill="#e6e6e6"/>
  <circle id="타원_6" data-name="타원 6" cx="22.498" cy="22.498" r="22.498" transform="translate(380.875 437.836)" fill="#e6e6e6"/>
  <circle id="타원_7" data-name="타원 7" cx="17.248" cy="17.248" r="17.248" transform="translate(386.125 443.086)" fill="#fff"/>
  <path id="패스_20" data-name="패스 20" d="M608.482,661.2a.781.781,0,0,1-.555-.23l-17.284-17.284a.786.786,0,0,1,1.111-1.111l17.284,17.284a.786.786,0,0,1-.555,1.341Z" transform="translate(-196.468 -191.442)" fill="#6c63ff"/>
  <path id="패스_21" data-name="패스 21" d="M599.448,654.707l-2.543-2.543a.1.1,0,0,0-.166.083,3.148,3.148,0,0,0,2.626,2.626.1.1,0,0,0,.083-.166Z" transform="translate(-196.468 -191.442)" fill="#6c63ff"/>
  <path id="패스_22" data-name="패스 22" d="M600.233,648.83l2.547,2.546a.1.1,0,0,0,.167-.083,3.149,3.149,0,0,0-2.629-2.629.1.1,0,0,0-.084.166Z" transform="translate(-196.468 -191.442)" fill="#6c63ff"/>
  <path id="패스_23" data-name="패스 23" d="M611.379,652.621a1.581,1.581,0,0,0,0-1.707,16.642,16.642,0,0,0-4.874-4.936,12.351,12.351,0,0,0-6.675-2.066,11.123,11.123,0,0,0-3.526.579.2.2,0,0,0-.077.326l2.32,2.32a.2.2,0,0,0,.188.052,4.714,4.714,0,0,1,5.7,5.7.2.2,0,0,0,.052.187l3.336,3.339a.2.2,0,0,0,.265.012,16.885,16.885,0,0,0,3.3-3.8Z" transform="translate(-196.468 -191.442)" fill="#6c63ff"/>
  <path id="패스_24" data-name="패스 24" d="M599.84,656.482a4.714,4.714,0,0,1-4.581-5.825.2.2,0,0,0-.052-.187l-3.282-3.283a.2.2,0,0,0-.266-.011,19.63,19.63,0,0,0-3.323,3.718,1.567,1.567,0,0,0-.031,1.745,16.4,16.4,0,0,0,4.826,4.942,12.168,12.168,0,0,0,6.693,2.044,11.7,11.7,0,0,0,3.567-.567.2.2,0,0,0,.079-.326l-2.331-2.33a.2.2,0,0,0-.187-.052A4.711,4.711,0,0,1,599.84,656.482Z" transform="translate(-196.468 -191.442)" fill="#6c63ff"/>
  <circle id="타원_8" data-name="타원 8" cx="22.498" cy="22.498" r="22.498" transform="translate(295.516 437.836)" fill="#e6e6e6"/>
  <circle id="타원_9" data-name="타원 9" cx="17.248" cy="17.248" r="17.248" transform="translate(300.766 443.086)" fill="#fff"/>
  <path id="패스_25" data-name="패스 25" d="M521.109,662.774a9.253,9.253,0,0,1-4.321-1.473A28.093,28.093,0,0,1,510,656.225a25.753,25.753,0,0,1-5.1-6.784c-1.809-3.29-1.5-5.014-1.156-5.751a4.591,4.591,0,0,1,1.8-1.931,8.654,8.654,0,0,1,1.406-.746l.136-.059a1.314,1.314,0,0,1,1.078-.1,3.157,3.157,0,0,1,1.024.786,17.021,17.021,0,0,1,2.561,3.8,3.787,3.787,0,0,1,.5,1.557,2.461,2.461,0,0,1-.626,1.464c-.064.088-.128.172-.19.253-.374.491-.456.633-.4.886a9.314,9.314,0,0,0,2.268,3.364,8.928,8.928,0,0,0,3.325,2.213c.264.056.409-.029.916-.416.073-.055.147-.113.225-.17a2.474,2.474,0,0,1,1.486-.665h0a3.557,3.557,0,0,1,1.564.549,18.758,18.758,0,0,1,3.788,2.542,3.155,3.155,0,0,1,.788,1.022,1.325,1.325,0,0,1-.1,1.08c-.018.041-.038.086-.059.135a8.668,8.668,0,0,1-.751,1.4,4.592,4.592,0,0,1-1.934,1.8,3.309,3.309,0,0,1-1.451.318Z" transform="translate(-196.468 -191.442)" fill="#6c63ff"/>
  <circle id="타원_10" data-name="타원 10" cx="22.498" cy="22.498" r="22.498" transform="translate(466.896 437.836)" fill="#e6e6e6"/>
  <circle id="타원_11" data-name="타원 11" cx="17.248" cy="17.248" r="17.248" transform="translate(472.146 443.086)" fill="#fff"/>
  <path id="패스_26" data-name="패스 26" d="M689.005,661.989H682.72a.786.786,0,1,1,0-1.571h6.285a.786.786,0,0,1,0,1.571Z" transform="translate(-196.468 -191.442)" fill="#6c63ff"/>
  <path id="패스_27" data-name="패스 27" d="M685.862,658.061a7.079,7.079,0,0,1-7.071-7.071v-1.571a.786.786,0,0,1,1.571,0v1.571a5.5,5.5,0,0,0,11,0v-1.571a.786.786,0,0,1,1.571,0v1.571a7.079,7.079,0,0,1-7.071,7.071Z" transform="translate(-196.468 -191.442)" fill="#6c63ff"/>
  <path id="패스_28" data-name="패스 28" d="M685.862,661.989a.786.786,0,0,1-.786-.786v-3.928a.786.786,0,0,1,1.571,0V661.2a.786.786,0,0,1-.786.786Z" transform="translate(-196.468 -191.442)" fill="#6c63ff"/>
  <path id="패스_29" data-name="패스 29" d="M685.862,654.918a3.87,3.87,0,0,1-2.777-1.183,3.972,3.972,0,0,1-1.151-2.794v-5.45a3.913,3.913,0,0,1,3.9-3.928h.031a3.886,3.886,0,0,1,3.928,3.928v5.45a3.958,3.958,0,0,1-3.928,3.977Z" transform="translate(-196.468 -191.442)" fill="#6c63ff"/>
</svg>
