<svg xmlns="http://www.w3.org/2000/svg" xmlns:xlink="http://www.w3.org/1999/xlink" version="1.1" x="0px" y="0px" viewBox="0 0 32 40" enable-background="new 0 0 32 32" xml:space="preserve"><g><rect x="20.1" y="6.4" transform="matrix(-0.7071 -0.7071 0.7071 -0.7071 36.5476 30.1004)" width="8.8" height="2.1"/><rect x="10.5" y="6.1" transform="matrix(-0.707 -0.7072 0.7072 -0.707 13.4018 39.6871)" width="8.8" height="21.9"/><path d="M30.8,7.5c1-1,1-2.6,0-3.6l-2.6-2.6c-1-1-2.7-1-3.6,0l-1.3,1.3l6.3,6.3L30.8,7.5z"/><path d="M0.5,30.5c-0.1,0.3,0,0.6,0.2,0.8c0.1,0.1,0.3,0.2,0.5,0.2c0.1,0,0.2,0,0.3,0L9,28.8L3.2,23L0.5,30.5z"/></g><text x="0" y="47" fill="#000000" font-size="5px" font-weight="bold" font-family="'Helvetica Neue', Helvetica, Arial-Unicode, Arial, Sans-serif">Created by Creative Stall</text><text x="0" y="52" fill="#000000" font-size="5px" font-weight="bold" font-family="'Helvetica Neue', Helvetica, Arial-Unicode, Arial, Sans-serif">from the Noun Project</text></svg>