<svg xmlns="http://www.w3.org/2000/svg" xmlns:xlink="http://www.w3.org/1999/xlink" width="956.35" height="386" viewBox="0 0 956.35 386">
  <defs>
    <filter id="shadow" x="0" y="0" width="956.35" height="386" filterUnits="userSpaceOnUse">
      <feOffset dy="4" input="SourceAlpha"/>
      <feGaussianBlur result="blur"/>
      <feFlood flood-color="#18191f"/>
      <feComposite operator="in" in2="blur"/>
      <feComposite in="SourceGraphic"/>
    </filter>
  </defs>
  <g id="ê·¸ë£¹_72" data-name="ê·¸ë£¹ 72" transform="translate(-8188 -5892)">
    <g id="cards_big_price" data-name="cards / big / price" transform="translate(8188 5892)">
      <g transform="matrix(1, 0, 0, 1, 0, 0)" filter="url(#shadow)">
        <g id="shadow-2" data-name="shadow" fill="#18191f" stroke="#18191f" stroke-miterlimit="10" stroke-width="2">
          <rect width="956.349" height="382" rx="16" stroke="none"/>
          <rect x="1" y="1" width="954.349" height="380" rx="15" fill="none"/>
        </g>
      </g>
      <g id="Rectangle" fill="#00c6ae" stroke="#18191f" stroke-miterlimit="10" stroke-width="2">
        <rect width="956.349" height="382" rx="16" stroke="none"/>
        <rect x="1" y="1" width="954.349" height="380" rx="15" fill="none"/>
      </g>
    </g>
    <g id="composition_peep-2" data-name="composition / peep-2" transform="translate(8503 5937.183)">
      <g id="openpeeps_peep-06_copy_2" data-name="openpeeps / peep-06 copy 2" transform="translate(5.82 15.98)">
        <g id="BODY" transform="translate(5.591 62.626)">
          <path id="_Background" data-name="ðŸŽ¨ Background" d="M113.72,103.633q-.359-6.673-.885-13.334c-.7-8.846-1.62-17.7-3.148-26.443a143.544,143.544,0,0,0-6.659-25.238,51.217,51.217,0,0,0-5.154-10.5,22.836,22.836,0,0,0-8.1-7.4c-3-1.763-6.488-4.822-9.367-6.8-1.2-.824-3.674-.769-4.5-1.989-1.079-1.6-.379-4.041-1.467-5.632a13.473,13.473,0,0,0-4.95-4.26A12.022,12.022,0,0,0,62.29.027a11.415,11.415,0,0,0-9.892,4,9.017,9.017,0,0,0-1.991,5.206,1.577,1.577,0,0,0,.4,1.189q-.237.317-.471.636a1.8,1.8,0,0,0-2.4-.564,33.65,33.65,0,0,1-8.049,4.267,1.873,1.873,0,0,0-2.045.346,4.55,4.55,0,0,1-.735.539c-1.057.287-2.13.526-3.219.711a1.427,1.427,0,0,0-.849.512,1.174,1.174,0,0,0-1.269-.259A39.279,39.279,0,0,0,16.459,26.83c-4.574,5.115-6.977,11.477-8.806,18A171.844,171.844,0,0,0,3.345,66.358C2.268,73.7,1.207,81.066.466,88.449a86.4,86.4,0,0,0-.387,12.519,62.155,62.155,0,0,0,.588,6.23c.071.483.145,1.04.264,1.6a.626.626,0,0,0-.72.726c.511,3.414,4.637,4.408,7.482,4.8a107.035,107.035,0,0,0,14.031,1.027c4.618.027,9.234-.27,13.842-.535q7.086-.408,14.172-.823,28.391-1.665,56.783-3.319c1.729-.1,3.7-.239,5.185-1.242,2.03-1.376,2.135-3.562,2.015-5.8Z" transform="translate(0.902 0)" fill="#fff"/>
          <path id="_Ink" data-name="ðŸ– Ink" d="M23.053,109.75a1.2,1.2,0,0,1-1.16-.852l-.01-.034-.029.022a6.269,6.269,0,0,1-.077-2.3c.022-.25.042-.485.054-.717l.435-8.813c.114-2.3.224-4.644.331-6.906.183-3.862.372-7.855.58-11.782l.112-2.076c.145-2.625.265-5.365.368-8.377l.031-.931c.084-2.62.05-5.394-1.335-7.986a.116.116,0,0,1,0-.118.126.126,0,0,1,.106-.06.123.123,0,0,1,.082.032,10.416,10.416,0,0,1,2.644,3.759A14.554,14.554,0,0,1,26.293,67.1a48.626,48.626,0,0,1-.11,7.119c-.053.828-.108,1.684-.146,2.518s-.076,1.684-.113,2.526c-.118,2.65-.24,5.388-.389,8.08-.066,1.182-.134,2.376-.2,3.531v0c-.135,2.366-.275,4.812-.4,7.219l-.415,8.067c-.011.214-.013.436-.016.671a5.689,5.689,0,0,1-.262,2.048A1.286,1.286,0,0,1,23.053,109.75Zm60.093-2.518a1.444,1.444,0,0,1-1.036-.492,1.075,1.075,0,0,1-.293-.838c.588-5.066,1.432-10.186,2.248-15.137l.043-.26c1.391-8.443,3.152-17.023,5.383-26.23l.367-1.511c.971-4.024,1.8-7.969,1.33-12a15.875,15.875,0,0,0-1.366-4.891A10.46,10.46,0,0,0,86.7,41.913l-.082-.061a1.473,1.473,0,0,1-.615-1.053,1.144,1.144,0,0,1,.361-.919l1.2-1.17,2.394-2.339.483-.472c.45-.439.831-.805,1.223-1.163.059-.053.139-.116.231-.189.3-.238.716-.564.754-.853a1.59,1.59,0,0,0-.288-.745c-.033-.059-.065-.113-.089-.159l-.54-1.091c-.268-.544-.533-1.1-.79-1.636l-.114-.238q-.25-.522-.5-1.043l-.014-.028c-.444-.922-.9-1.876-1.344-2.821l-3.649-7.823c-.237-.507-.472-1.031-.7-1.537a35.473,35.473,0,0,0-2.594-5.04l-.265-.4a4.57,4.57,0,0,1-.557-1.067,4.338,4.338,0,0,0-.553-1.163,4.416,4.416,0,0,0-2.629-1.4.09.09,0,0,1-.081-.1.132.132,0,0,1,.111-.125c.147-.014.3-.021.44-.021a7.253,7.253,0,0,1,2.715.673l.253.1c.512.2,1.008.431,1.471.653a3.646,3.646,0,0,1,1.374,1.353l.2.294a37.944,37.944,0,0,1,2.981,5.658c.264.578.536,1.174.811,1.751q.515,1.082,1.031,2.163c1.026,2.15,2.086,4.374,3.106,6.575l.669,1.441c.276.6.639,1.379,1,2.164l.567,1.259c.6,1.338,1.068,2.647.269,3.943a11.027,11.027,0,0,1-2.376,2.451c-.273.23-.53.446-.778.668l-2.654,2.369a15.247,15.247,0,0,1,3.779,6.613,10.356,10.356,0,0,1,2.487-.564c.3-.042.576-.082.85-.13a1.347,1.347,0,0,1,.231-.021.978.978,0,0,1,.988.991.993.993,0,0,1-.256.728.907.907,0,0,1-.674.264h-.025c-.1,0-.2,0-.319,0-.194,0-.4,0-.586.005s-.4.005-.606.005a9.1,9.1,0,0,1-1.8-.141,21,21,0,0,1,.4,2.466c.434,4.227-.483,8.512-1.545,12.9l-.084.345c-1.232,5.074-2.242,9.547-3.086,13.677-.933,4.564-1.785,9.214-2.531,13.823-.646,3.985-1.139,8.056-1.617,11.993q-.132,1.091-.265,2.179A1.361,1.361,0,0,1,83.145,107.232Zm-31.38-.208a1.018,1.018,0,0,1-1.006-.724c-1.31-3.965-2.558-8.02-3.765-11.942l0-.013c-.42-1.364-.853-2.774-1.284-4.16-2.613-8.415-4.955-17.661-7.37-29.1-1.02-4.825-1.965-9.737-2.811-14.6-.172-.993-.327-1.9-.472-2.775l-.225-1.362a2.978,2.978,0,0,1,.512-2.749,5.643,5.643,0,0,1,2.3-1.144c.234-.075.454-.146.664-.223l.07-.026c.356-.133.716-.264,1.064-.391l.791-.289c-.463-.365-.931-.74-1.384-1.1l0,0,0,0c-.435-.348-.884-.709-1.329-1.059-.245-.194-.5-.39-.739-.579l0,0c-.48-.375-.977-.762-1.456-1.154a2.781,2.781,0,0,1-1.144-1.909,4.637,4.637,0,0,1,.454-2.022v0c.037-.094.073-.189.109-.283l.027-.072c.248-.67.537-1.45.834-2.225l1.751-4.581c.351-.919.7-1.853,1.043-2.757.74-1.967,1.5-4,2.306-5.977a30.737,30.737,0,0,1,1.564-3.349c.307-.556.611-1.054.931-1.523A3.135,3.135,0,0,1,44.49,7.8,8.669,8.669,0,0,0,45.8,6.889a9.018,9.018,0,0,1,1.282-.9,6.151,6.151,0,0,1,2.9-.766.066.066,0,0,1,.067.059A.07.07,0,0,1,50,5.365a8,8,0,0,0-3.077,1.673,4.758,4.758,0,0,0-1.1,1.312,2.212,2.212,0,0,0-.194.612l-.013.071a2.163,2.163,0,0,1-.357.906l-.034.052a28.484,28.484,0,0,0-2.609,5.548l-1.555,4.175-1.554,4.175-.864,2.319-.006.015-.634,1.7c-.284.762-.582,1.536-.844,2.219-.04.1-.08.206-.12.307-.085.217-.172.438-.249.659-.005.015-.014.052-.024.1a1.557,1.557,0,0,1-.077.276l.013.022a3.884,3.884,0,0,0,1.123.99c.184.127.358.246.5.361l1.632,1.32c.344.279.7.56,1.038.831.812.647,1.652,1.315,2.446,2.008a1.024,1.024,0,0,1,.333,1,1.328,1.328,0,0,1-.855.978c-1,.325-2,.705-2.964,1.073l-.008,0c-.313.119-.637.242-.955.361-.195.073-.4.143-.59.211-.334.117-.678.238-1.007.375l-.317.137c-.085.038-.084.05-.073.128a1.231,1.231,0,0,1,.013.156,3.006,3.006,0,0,0,.071.51c.014.071.029.144.04.215.44,2.662.911,5.341,1.4,7.961,1.691,9.107,3.772,18.493,6.187,27.9.705,2.745,1.453,5.527,2.175,8.217.505,1.88,1.027,3.822,1.53,5.735,1.057,4.021,2.422,8.045,3.741,11.937l0,.006q.309.91.615,1.819a.894.894,0,0,1-.1.844A1.132,1.132,0,0,1,51.766,107.023ZM78,105.314a1.213,1.213,0,0,1-1.129-.85,1.12,1.12,0,0,1-.035-.61c0-.129-.015-.27-.026-.406-.015-.189-.03-.384-.027-.551l.026-1.2c0-.132.007-.266.011-.4l.005-.16-.022,0c-1.174.057-2.432.083-4.08.083-.678,0-1.367,0-2.034-.008h-.022c-.643,0-1.307-.008-1.97-.008h-1.44c-.812,0-1.776-.005-2.765-.042l-.375-.016c-.231-.011-.47-.02-.7-.028-.528-.019-1.073-.039-1.61-.086.109.879.2,1.662.274,2.393a1.158,1.158,0,0,1-.32.893,1.514,1.514,0,0,1-1.08.507,1.444,1.444,0,0,1-1.4-1.4c-.243-1.836-.414-3.711-.579-5.525-.153-1.681-.312-3.418-.526-5.118-.361-2.857-.684-5.767-1-8.58l-.1-.94-.118-1.059c-1.38-12.355-2.6-23.7-3.742-34.679l-.558-5.406-.068-.66c-.532-5.142-1.081-10.458-1.54-15.7-.259-2.954-.509-6.017-.763-9.363-.161-2.123-.277-4.369-.354-6.865a1.169,1.169,0,0,1-.3-1.145c.078-.274.168-.538.246-.759V7.619q-.008-.362-.015-.724a.294.294,0,0,1,.085-.216.379.379,0,0,1,.267-.107.365.365,0,0,1,.073.007c.132-.32.271-.644.406-.958.218-.507.443-1.031.641-1.546.131-.341.258-.7.381-1.038A17.948,17.948,0,0,1,53,.034.067.067,0,0,1,53.063,0a.071.071,0,0,1,.073.07,17.941,17.941,0,0,1-.352,3.256c-.061.362-.125.735-.179,1.1-.081.545-.142,1.113-.2,1.661a26.235,26.235,0,0,1-.387,2.71,1.076,1.076,0,0,1-.038.195l-.014.049a1.289,1.289,0,0,1-.881.841c.152.84.265,1.53.356,2.17.182,1.284.346,2.556.5,3.749l.19,1.5c.157,1.235.324,2.584.527,4.244A11.912,11.912,0,0,0,54,22.011a18.007,18.007,0,0,0,3.231.533c1.861.183,3.763.285,5.6.383l1.087.059.477.027c1.259.072,2.393.107,3.466.107a39.428,39.428,0,0,0,4.061-.2,26.265,26.265,0,0,0,3.679-.645c.3-.076.6-.171.894-.263s.617-.2.931-.272a2.035,2.035,0,0,0,.55-.265l.038-.023a.636.636,0,0,1,.383-.234l.045-.008.045-.006.015-.007v.005a1.343,1.343,0,0,1,.185-.013,1.278,1.278,0,0,1,.172.012c.042-1.043.091-2.166.154-3.31.034-.624.082-1.265.129-1.886a25.984,25.984,0,0,0-.116-7.1.077.077,0,0,1,.014-.067.079.079,0,0,1,.061-.028.078.078,0,0,1,.074.054c1.029,2.71,1.06,5.661,1.09,8.516,0,.415.009.844.017,1.265.048,2.654.032,5.354.016,7.965q0,.819-.009,1.637a1.6,1.6,0,0,1,.6.415,1.15,1.15,0,0,1,.276.808.8.8,0,0,1-.276.565,1.844,1.844,0,0,1-.605.345c-.012,2.8-.032,5.6-.059,8.342a1.156,1.156,0,0,1,.412.947,1.023,1.023,0,0,1-.432.834c-.07,6.324-.173,12.752-.272,18.969v.046c-.042,2.622-.085,5.332-.126,8l-.284,18.889c-.015.969-.033,1.954-.051,2.906v0c-.029,1.521-.058,3.093-.072,4.639l.018.007.063.029c.112.053.264.132.3.212a.107.107,0,0,1,.01.048.9.9,0,0,1,.494.247.893.893,0,0,1,0,1.23l-.078.095a.867.867,0,0,1-.661.274.963.963,0,0,1-.15-.012c0,.523,0,1.054,0,1.568,0,1.03.007,2.1,0,3.144,0,.484-.009.957-.017,1.439l-.02,1.15c-.01.514-.029,1.472-.743,1.786A1.537,1.537,0,0,1,78,105.314Zm-16.939-9.8h0l.255,1.844c.12.871.248,1.809.373,2.768.578-.079,1.168-.126,1.739-.171h0c.226-.018.46-.036.685-.056,1.408-.125,2.854-.184,4.13-.237.8-.033,1.621-.074,2.41-.113,1.919-.1,3.9-.194,5.851-.194H76.8c.029,0,.055,0,.083,0l.143-3.638-2,0c-1.649,0-3.279-.016-5.087-.031l-1.269-.009c-1.085-.007-2.208-.015-3.313-.038l-.655-.015c-.367-.01-.737-.01-1.13-.011a21.858,21.858,0,0,1-2.513-.1Zm-.653-5.2h0c.158,1.388.3,2.528.436,3.588a15.711,15.711,0,0,1,2.071-.112c.281,0,.56,0,.83.007h.1c.243,0,.494.005.736.005h.256l.166,0c.617-.011,1.274-.016,2.069-.016.559,0,1.128,0,1.678,0h.02c.482,0,.98,0,1.47,0,1.991,0,3.753.01,5.387.023l1.475.012,0-.075c.038-1.044.068-2.164.093-3.524h0c-.069.007-.155.016-.25.021-.152.006-.315.009-.529.009h-.664c-.759.006-1.654.013-2.534.013-1.682,0-3.387.01-5.068.031l-1.391.018h-.025c-1.244.017-2.531.034-3.8.036h-.069c-.839,0-1.7-.023-2.455-.044ZM59.757,84.5c.124,1.075.245,2.169.361,3.227v.015q.055.5.111,1c.106-.016.21-.029.316-.041.931-.1,1.76-.168,2.533-.217,1.744-.108,3.466-.162,5.067-.205,1.747-.047,3.5-.083,5.217-.107.437-.006.9-.009,1.407-.009.341,0,.71,0,1.128,0h.535c.2,0,.426,0,.657.018.043,0,.086.007.137.013l.029-2.125q.008-.531.017-1.062c-.8.049-1.578.056-2.237.056l-.855,0h-.01l-.837,0h-.3l-.655,0c-1.256,0-2.612-.016-4.265-.05-2.029-.043-3.592-.1-5.068-.2-.695-.044-1.382-.1-2.044-.177l-.34-.039-.4-.044C60.093,84.538,59.924,84.52,59.757,84.5Zm-.64-5.546h0q.25,2.174.5,4.346c.227-.011.457-.015.681-.02.17,0,.344-.007.512-.013.854-.03,1.685-.036,2.384-.038h.587c.628,0,1.271,0,1.872,0,.624,0,1.332,0,2.008,0h.451c1.7,0,3.439-.034,5.069-.064.572-.011,1.156-.036,1.72-.06.765-.032,1.556-.066,2.332-.066h.075l.1-4.545c-2.839.225-5.924.351-9.428.385l-.473,0c-.922.007-1.862.025-2.771.041h0c-1.186.022-2.41.045-3.614.045-.723,0-1.378-.008-2-.025Zm-.726-6.324c.255,2.23.465,4.06.66,5.757,1.327-.163,2.681-.3,3.991-.43,1.434-.144,2.916-.292,4.368-.477l2.511-.32c2.4-.307,4.967-.63,7.536-.9l.085-3.938a4.313,4.313,0,0,1-1.132.144l-.135.006-1.218.061c-.533.026-1.107.053-1.693.074-1.875.069-3.774.134-5.646.194-1.476.046-2.614.067-3.689.067-.746,0-1.435-.01-2.107-.031-1.017-.032-1.94-.084-2.823-.159-.15-.012-.309-.023-.449-.031l-.259-.017Zm-.722-6.351h0c.161,1.426.326,2.876.486,4.278v.012l.132,1.162c.147-.024.3-.045.44-.065h0c.17-.024.345-.049.512-.077.705-.119,1.462-.226,2.38-.336,1.511-.181,3.163-.334,5.2-.482.984-.071,1.985-.138,2.954-.2h.008l.024,0c.775-.051,1.575-.1,2.363-.16l1.262-.089c.479-.034.88-.06,1.262-.083.227-.014.461-.018.708-.023a8.19,8.19,0,0,0,1.56-.128A1.014,1.014,0,0,1,77.361,70a1.1,1.1,0,0,1,.23.025l.084-3.956a6.646,6.646,0,0,1-1.283.139c-.13.006-.253.011-.374.019l-.1.006c-1.073.082-2.126.115-2.924.135-1.723.043-3.6.07-5.736.082l-1.15.007c-.515,0-1.127.006-1.757.006-1.088,0-1.99-.009-2.841-.029-1-.023-2.036-.075-2.948-.12l-.433-.019h-.008l-.456-.02Zm-.689-6.19c.219,1.991.4,3.611.566,5.1.181-.019.363-.037.54-.054.151-.014.319-.03.48-.047h0c.91-.1,1.942-.2,2.944-.283,1.77-.14,3.572-.228,5.315-.314l.286-.014c1.047-.052,2.112-.1,3.142-.137h0c.849-.034,1.726-.07,2.592-.11.759-.036,1.761-.089,2.778-.183.214-.02.437-.056.674-.095a6.984,6.984,0,0,1,1.1-.122,2.658,2.658,0,0,1,.315.018q.055-2.515.113-5.029v-.056a1.147,1.147,0,0,1-.791.4c-1.251.163-2.544.227-3.794.289-.463.023-.942.047-1.413.075l-.306.019c-1.626.107-3.276.195-4.871.279l-.493.026c-1.807.1-3.663.177-5.514.241-.493.017-1,.026-1.559.026-.25,0-.515,0-.787-.005l-.335-.005-.317,0h-.014C57.427,60.1,57.2,60.1,56.98,60.089Zm-.7-6.454c.235,2.168.429,3.952.61,5.614.284-.053.57-.1.846-.14l.25-.039.068-.011c.853-.134,1.734-.272,2.6-.373,1.914-.22,3.669-.407,5.364-.571l.412-.04c1.369-.133,2.785-.271,4.182-.4l.919-.079c.568-.048,1.149-.106,1.711-.163h0c1.247-.126,2.536-.256,3.8-.281h.017a1.008,1.008,0,0,1,.8.418q.045-2.02.093-4.04l.031-1.326a.738.738,0,0,1-.1.13,3.189,3.189,0,0,1-2.274.74c-.136.008-.275.017-.414.028l-.061.005c-1.127.095-2.063.168-2.946.231-2.1.152-4.16.252-5.9.33-1.913.086-3.378.125-4.75.125-.444,0-.883,0-1.3-.013l-.763-.013h-.018C58.41,53.752,57.331,53.735,56.278,53.635Zm-.7-6.485.57,5.282c.96-.139,1.949-.215,2.906-.288.346-.026.7-.054,1.052-.084l.277-.024c1.539-.14,3.11-.244,4.628-.345l1.13-.075c2.031-.138,4.028-.3,5.9-.461.964-.081,1.962-.165,2.946-.255l.121-.012c.123-.013.246-.028.365-.042h0a7.837,7.837,0,0,1,.941-.077,2.256,2.256,0,0,1,1.31.364.851.851,0,0,1,.279.306l.021-.894v-.015c.028-1.189.057-2.418.087-3.627a6.839,6.839,0,0,1-.8.035h-.293c-.125,0-.219,0-.3,0-1.025.033-2.093.066-3.268.1l-6.537.193c-1.561.046-3.407.093-5.266.093-.485,0-.962,0-1.419-.01l-.566-.007c-.78-.009-1.586-.019-2.376-.062l-.327-.02c-.15-.01-.312-.017-.483-.024C56.183,47.193,55.881,47.18,55.578,47.15Zm-.7-6.4c.2,1.795.4,3.628.594,5.449.33-.062.663-.1.986-.135.142-.016.275-.031.4-.047L56.958,46c.9-.124,1.829-.2,2.723-.282l.4-.035c2.144-.189,4.282-.3,6.09-.391,1.426-.069,2.876-.131,4.279-.192l.114,0,1.846-.08,2.079-.093,1.04-.045.488-.02,1-.041c.081,0,.164-.009.245-.015h0c.124-.009.252-.018.378-.018.041,0,.079,0,.116,0l.07-.01.086-.01a.989.989,0,0,1,.214-.125l.046-.018.1-3.889c-4.393.177-8.3.286-11.946.335-.69.009-1.413.014-2.147.014-1.407,0-2.9-.017-4.577-.052-.983-.021-1.967-.068-2.924-.141l-.364-.029c-.186-.016-.38-.03-.567-.044-.282-.021-.574-.042-.864-.07ZM54.228,34.9c.2,1.731.375,3.335.548,4.905.373-.042.75-.072,1.115-.1.189-.015.384-.031.57-.047,1.289-.116,2.334-.191,3.287-.235l2.191-.1c1.379-.064,2.865-.131,4.383-.187,4.39-.16,8.315-.329,12-.518L78.35,37.5q.029-1.108.059-2.215a1.1,1.1,0,0,1-.831.34c-1.166,0-2.35,0-3.494,0-2.985,0-6.071,0-9.1-.052-1.732-.028-4.013-.076-6.3-.193-.968-.05-1.975-.149-3.078-.3-.174-.024-.351-.045-.538-.067C54.791,34.974,54.507,34.941,54.228,34.9Zm-.672-5.826h0c.19,1.613.386,3.3.582,5.025.344-.061.7-.1,1.036-.145.177-.021.344-.042.509-.064,1.159-.157,2.189-.26,3.149-.314,2.189-.124,4.336-.18,6.148-.218,3.044-.064,6.141-.082,9.136-.1,1.132-.006,2.3-.013,3.46-.022h.012a1.082,1.082,0,0,1,.867.386l.02-.728c.022-.742.045-1.537.071-2.41-.15-.016-.3-.034-.444-.052-.257-.031-.5-.061-.735-.077-1.138-.08-2.292-.153-3.431-.219-2.236-.128-4.58-.245-7.167-.358-2.28-.1-4.727-.2-7.171-.294l-1.045-.038a49.1,49.1,0,0,1-5-.373ZM52.8,22.763c.206,1.7.411,3.421.61,5.089l.061.525a41.819,41.819,0,0,1,6.122-.588c2.305-.1,4.574-.148,6.745-.148h.427c2.306.007,4.717.061,7.167.162,1.207.05,2.411.108,3.58.171.21.011.442.012.688.012.138,0,.278,0,.421,0q.006-.171.011-.343c0-.152.009-.3.015-.457l0-.052v-.015q.053-1.586.106-3.172a9,9,0,0,1-2.246.67c-.148.031-.287.059-.421.088L76,24.73a31.063,31.063,0,0,1-4.072.615c-1.052.092-2.171.138-3.326.138-1.458,0-3.011-.072-4.75-.219l-.47-.04A44.572,44.572,0,0,1,56.3,24.178a12.664,12.664,0,0,1-3.186-1.229C53,22.883,52.9,22.823,52.8,22.763ZM1.465,104.683a1.08,1.08,0,0,1-1.1-1.039A195.966,195.966,0,0,1,.689,75.966,196.761,196.761,0,0,1,3.835,51.378l.139-.7c1.378-6.955,3.16-14.963,6.879-21.993a37.572,37.572,0,0,1,13.358-14.1c4.052-2.54,10.338-5.568,17.28-5.568.317,0,.637.006.951.019a.14.14,0,0,1,.131.131.118.118,0,0,1-.1.131A57.983,57.983,0,0,0,32.34,12.349a38.168,38.168,0,0,0-9.1,5.4,39.109,39.109,0,0,0-6.751,6.944A41.153,41.153,0,0,0,11.6,33.053,70.047,70.047,0,0,0,8.069,43.915c-.943,3.724-1.776,7.7-2.478,11.811A202.848,202.848,0,0,0,3.063,79.42c-.234,4.491-.285,9.058-.334,13.476-.039,3.525-.08,7.167-.213,10.749A1.026,1.026,0,0,1,1.465,104.683Zm102.65-1.031a1.386,1.386,0,0,1-1.365-1.013c-.679-3.449-1.281-7.1-1.9-11.475-.954-6.784-1.667-13.646-2.12-20.4-.227-3.395-.371-6.856-.426-10.286-.025-1.494.008-3.058.1-4.782l.02-.367c.015-.263.028-.531.04-.791a14.459,14.459,0,0,1,.586-4.089.085.085,0,0,1,.081-.06.087.087,0,0,1,.082.06,16.734,16.734,0,0,1,.713,4.381c.027.361.054.734.087,1.1l.013.139c.161,1.7.279,3.39.384,4.968l.041.622c.515,7.92,1.093,14.353,1.819,20.244.907,7.358,2.16,14.552,3.151,20a1.414,1.414,0,0,1-.968,1.705A1.284,1.284,0,0,1,104.116,103.652Zm-72.038-.532a1.308,1.308,0,0,1-1.166-.844.98.98,0,0,1,.292-1.127c.986-.87,2.016-1.726,3.013-2.554.582-.484,1.182-.982,1.766-1.477l.695-.589a25.2,25.2,0,0,1,4.137-3,.082.082,0,0,1,.04-.01.091.091,0,0,1,.078.046.076.076,0,0,1,0,.08,27.87,27.87,0,0,1-3.638,4.41l-.182.192c-.52.549-1.044,1.114-1.55,1.66l0,0c-.883.951-1.8,1.935-2.719,2.873A1.057,1.057,0,0,1,32.078,103.12Zm68-.093a1.558,1.558,0,0,1-1.057-.432c-.553-.495-1.092-1.034-1.613-1.556-.193-.193-.392-.392-.591-.589l-.219-.214c-.866-.842-1.607-1.616-2.265-2.367l-.651-.741a24.162,24.162,0,0,1-3.3-4.45.137.137,0,0,1,0-.139.145.145,0,0,1,.124-.068.153.153,0,0,1,.1.036c.5.4.97.861,1.429,1.3.318.307.647.624.981.921.722.642,1.515,1.289,2.5,2.035.893.678,1.783,1.309,2.646,1.875a23.853,23.853,0,0,0,2.153,1.216l.155.08a1.449,1.449,0,0,1,.97.564,1.648,1.648,0,0,1,.311,1.181,1.214,1.214,0,0,1-.431.829l-.106.083A1.846,1.846,0,0,1,100.079,103.027Zm14.1-1.41a1.325,1.325,0,0,1-.952-.379.99.99,0,0,1-.267-.753,7.643,7.643,0,0,1-.051-1.358c-.009-.052-.02-.115-.034-.18a.744.744,0,0,1,.064-.479c.011-.221.021-.437.025-.653.015-.935.011-1.791-.011-2.617-.051-1.845-.126-3.715-.2-5.523-.161-4-.374-7.6-.651-11.025a184.642,184.642,0,0,0-6.9-37.9,68.971,68.971,0,0,0-3.094-8.409,50.327,50.327,0,0,0-4.345-7.827A43.126,43.126,0,0,0,92.7,18.431a40.387,40.387,0,0,0-6.192-5.241A.164.164,0,0,1,86.443,13a.139.139,0,0,1,.13-.106.158.158,0,0,1,.052.009l.317.109a21.761,21.761,0,0,1,3.89,1.68,25.394,25.394,0,0,1,3.626,2.643,33.661,33.661,0,0,1,6.073,7.077,46.89,46.89,0,0,1,4.268,8.245,86.48,86.48,0,0,1,2.983,8.813,187.077,187.077,0,0,1,4.372,19.29c1.184,6.7,2.076,13.4,2.653,19.914.29,3.275.486,6.6.584,9.869.053,1.775.047,3.568.035,5.088,0,.389,0,.8,0,1.308l.017,1.308c0,.192.009.39.016.581a7.109,7.109,0,0,1-.1,1.924A1.15,1.15,0,0,1,114.181,101.617ZM78.078,12.3a1.043,1.043,0,0,1-.993-.723,25.049,25.049,0,0,1-1.34-4.588,18.22,18.22,0,0,1-.306-2.319c-.006-.117-.014-.233-.022-.356a5.567,5.567,0,0,1,.059-1.71.113.113,0,0,1,.112-.081.1.1,0,0,1,.094.054,6.357,6.357,0,0,1,.45,1.279c.063.23.128.468.2.692q.1.293.2.587c.165.493.335,1,.522,1.492a28.245,28.245,0,0,0,1.958,4.136.966.966,0,0,1,.043,1A1.152,1.152,0,0,1,78.078,12.3Z" transform="translate(0 6.455)"/>
        </g>
        <g id="HEAD" transform="translate(24.498 2.732)">
          <path id="_Background-2" data-name="ðŸŽ¨ Background" d="M55.906,29a77.808,77.808,0,0,0-.625-10.123,15.254,15.254,0,0,0-4.142-8.562C46.233,5.293,39.122,4.067,32.5,2.943L21.186,1.021C17.734.435,14.05-.5,10.562.329A11.038,11.038,0,0,0,6.05,2.816,15.8,15.8,0,0,0,2.51,6.527a13.79,13.79,0,0,0-1.457,4.825q-.48,2.8-.745,5.627A70.526,70.526,0,0,0,.162,28.337C.286,30.171.484,32,.737,33.821q.188,1.354.427,2.7c.047.265.083.558.131.854A9,9,0,0,0,.752,40.49C.8,43.575,3.4,45.518,6.027,46.561c1.522.6,3.112,1.015,4.607,1.691a10.341,10.341,0,0,1,3.718,3.176,36.183,36.183,0,0,0,7.008,6.637,25.076,25.076,0,0,0,19.5,4.438A17.365,17.365,0,0,0,45.6,60.824,10.606,10.606,0,0,0,49.289,57.3a34.511,34.511,0,0,0,4.1-8.821A51.166,51.166,0,0,0,55.5,38.88a73.07,73.07,0,0,0,.41-9.88Z" transform="translate(16.206 10.808)" fill="#fff"/>
          <path id="_Ink-2" data-name="ðŸ– Ink" d="M53.576,74.608h0a11.46,11.46,0,0,1-5.129-1.145,10.739,10.739,0,0,1-4.174-3.718l-.043-.067c-.287-.46-.277-.624-.245-.681a.087.087,0,0,1,.082-.043,1.327,1.327,0,0,1,.684.513,14.544,14.544,0,0,0,4.305,2.654,12.83,12.83,0,0,0,4.689.893,13.936,13.936,0,0,0,9.286-3.728,21.146,21.146,0,0,0,5.842-8.953,40.531,40.531,0,0,0,2.206-11.789,61.515,61.515,0,0,0-.709-12.5,55.028,55.028,0,0,0-2.9-11.1,52.4,52.4,0,0,0-5.7-.312,51.768,51.768,0,0,0-9.348.848,48.38,48.38,0,0,0-9,2.564,43.579,43.579,0,0,0-8.255,4.314,39.553,39.553,0,0,0-7.117,6.1l.667,4.015c.039.233.08.469.119.7.077.446.157.9.222,1.356a1.465,1.465,0,0,1-.235,1.234A1.036,1.036,0,0,1,28,46.15a4.661,4.661,0,0,1-2.148-1,11.619,11.619,0,0,0-1.123-.688,6.282,6.282,0,0,0-.874-.064c-.12,0-.239,0-.355.012-3.236.417-4.517,3.616-4.338,6.412a6.91,6.91,0,0,0,1.323,3.771,4.113,4.113,0,0,0,3.341,1.673A5.629,5.629,0,0,0,25.483,56a1.3,1.3,0,0,1,.676-.225.764.764,0,0,1,.714.517,16.1,16.1,0,0,1,2.191,2.769A26.115,26.115,0,0,0,32.7,63.532a24.438,24.438,0,0,0,3.123,2.735,5.173,5.173,0,0,0,.812.6c.814.528,1.736,1.125,1.269,1.97a.822.822,0,0,1-.8.521c-1.33,0-3.655-2.215-4.923-3.536a31.62,31.62,0,0,1-4.045-5.046,17.169,17.169,0,0,1-6.461,1.071c-1.829,0-3.676-.175-5.463-.344l-.708-.067a19.754,19.754,0,0,1-9.919-2.845A11.876,11.876,0,0,1,.7,52.208a16.018,16.018,0,0,1-.56-6.89,26.151,26.151,0,0,1,2.256-7.7,38.169,38.169,0,0,1,4.854-7.829,47.213,47.213,0,0,1,7.234-7.282,50.209,50.209,0,0,1,11.014-6.1.484.484,0,0,0,.29-.557.391.391,0,0,0-.364-.345.442.442,0,0,0-.165.035,53.781,53.781,0,0,0-7.468,3.7l0-.854a23.449,23.449,0,0,1,.268-4.25,10.467,10.467,0,0,1,.658-2.614c.211-1.187,1.968-3.691,4.808-6A25.294,25.294,0,0,1,36,.115,12.826,12.826,0,0,1,37.74,0,16.455,16.455,0,0,1,44.5,1.5a10.6,10.6,0,0,1,4.98,4.289A55.66,55.66,0,0,1,62.2,4.233,37.517,37.517,0,0,1,73.752,5.922a26.112,26.112,0,0,1,10.082,5.9,13.043,13.043,0,0,1,3.2,5.767,12.708,12.708,0,0,1-.03,5.925,18.421,18.421,0,0,1-2.095,5.112,25.474,25.474,0,0,1-3.394,4.508,23.444,23.444,0,0,1-8.113,5.812c.294,1.429.2,6.711-.745,12.522-1.5,9.263-4.085,14.061-5.986,16.454a16.8,16.8,0,0,1-5.805,4.83A16.111,16.111,0,0,1,53.576,74.608ZM25.438,42.884l-.085.05a.751.751,0,0,1-.212.083c.111.047.209.093.3.139v0c0-.059,0-.118,0-.178v-.09Zm2.6,8.235a1.191,1.191,0,0,1-.491-.368l-.028-.031.006.008c.071.11.1.186.08.22a.045.045,0,0,1-.043.02.741.741,0,0,1-.449-.353l0-.011a1.216,1.216,0,0,1-.192-.2l-.023-.029-.005,0a5.552,5.552,0,0,0-2.113-1.313c-.112-.021-.214-.036-.311-.046a9.473,9.473,0,0,0-1.289-.195.239.239,0,0,1-.148-.1c-.272-.009-.432-.065-.439-.152s.112-.163.257-.189h.005l-.054,0c-.277-.027-.489-.1-.493-.172,0-.044.07-.083.21-.113l.054-.01-.017-.029c-.126-.016-.195-.07-.191-.149a.207.207,0,0,1,.2-.176.167.167,0,0,1,.066.013.149.149,0,0,1,.006-.133c.024-.033.071-.048.149-.048.027,0,.055,0,.083,0h.007l.065,0a.075.075,0,0,0,.044-.008.24.24,0,0,1,.11-.079.425.425,0,0,0,.079-.067c.009-.01.009-.01.031-.011h.011a.5.5,0,0,1,.363-.129,1.846,1.846,0,0,1,.489.091l.053.015a1.5,1.5,0,0,0,.36.076h.011a4.832,4.832,0,0,1,2.077.834,5.655,5.655,0,0,1,.863.593h0l0,0,.021.014c.253.18,1.051,1.027,1,1.2-.006.02-.024.03-.053.03a.513.513,0,0,1-.187-.059c-.052-.068-.108-.136-.17-.21a.128.128,0,0,1-.025.027l.042.062c.147.222.212.353.192.391a.022.022,0,0,1-.021.011,2.733,2.733,0,0,1-.8-.72.129.129,0,0,1-.026.015l.219.267.021.026.054.068.046.045c.391.385.579.749.541.842a.036.036,0,0,1-.036.023c-.095,0-.319-.21-.6-.562a.343.343,0,0,1,.064.151l.05.064c.228.294.339.486.313.54A.03.03,0,0,1,28.034,51.119Z" transform="translate(0 0)"/>
        </g>
        <g id="FACE" transform="translate(65.762 36.216)">
          <path id="_Ink-3" data-name="ðŸ– Ink" d="M15.8,28.039a5.884,5.884,0,0,1-1.657-.235,6.1,6.1,0,0,1-2.823-1.834,4.083,4.083,0,0,1-1.083-2.726.449.449,0,0,1,.106-.286.5.5,0,0,1,.265-.159.509.509,0,0,1,.115-.013.471.471,0,0,1,.194.041.406.406,0,0,1,.2.2c.094.124.218.286.346.447a5.7,5.7,0,0,0,3.227,2.314,3.835,3.835,0,0,0,.823.089,4.018,4.018,0,0,0,1.388-.251,4.73,4.73,0,0,0,1.943-1.366,1.042,1.042,0,0,1,.794-.392h.006a1.222,1.222,0,0,1,.845.374,1.319,1.319,0,0,1,.394.86,1.149,1.149,0,0,1-.327.844,6.608,6.608,0,0,1-3,1.84A6.337,6.337,0,0,1,15.8,28.039Zm1.786-8.349h0a7.032,7.032,0,0,1-4.064-1.623.894.894,0,0,1-.263-1.036,1.087,1.087,0,0,1,.946-.759.818.818,0,0,1,.446.137l.149.115a5.675,5.675,0,0,0,3.024,1.483,1.805,1.805,0,0,0,1.345-.6,1.99,1.99,0,0,0,.377-1.6,4.361,4.361,0,0,0-2.018-2.4.378.378,0,0,1-.1-.434.561.561,0,0,1,.546-.388.765.765,0,0,1,.129.011A3.6,3.6,0,0,1,20.5,14a3.532,3.532,0,0,1,.615,2.359,3.768,3.768,0,0,1-1.026,2.3A3.394,3.394,0,0,1,17.586,19.69ZM3.222,13.921a.724.724,0,0,1-.208-.031.421.421,0,0,1-.284-.246,3.612,3.612,0,0,1,.175-2.63A5.335,5.335,0,0,1,4.826,8.6a3.332,3.332,0,0,1,1.582-.408,3.166,3.166,0,0,1,1.524.393A5.786,5.786,0,0,1,9.8,10.541c.117.171.223.325.332.476a.96.96,0,0,1,.161.892,1.15,1.15,0,0,1-.654.675,1.25,1.25,0,0,1-.482.1A1.1,1.1,0,0,1,8.73,12.6a1.158,1.158,0,0,1-.62-.655,3.439,3.439,0,0,0-1.182-1.569,1.317,1.317,0,0,0-.715-.224,1.331,1.331,0,0,0-.552.126,4.139,4.139,0,0,0-1.474,1.471A2.878,2.878,0,0,0,3.7,13.466a.39.39,0,0,1-.127.328.488.488,0,0,1-.274.121A.64.64,0,0,1,3.222,13.921ZM24.974,11.8a.938.938,0,0,1-.27-.043,1.026,1.026,0,0,1-.423-.253.838.838,0,0,1-.235-.425,1.746,1.746,0,0,0-.611-1.018,1.218,1.218,0,0,0-.975-.256,1.873,1.873,0,0,0-1.05.63,2.285,2.285,0,0,0-.217.315l-.01.017a2.334,2.334,0,0,1-.435.572.426.426,0,0,1-.27.1.4.4,0,0,1-.12-.019,1.245,1.245,0,0,1-.465-1.009,1.847,1.847,0,0,1,.341-.938,3.692,3.692,0,0,1,1.98-1.409A2.807,2.807,0,0,1,22.8,8a3.009,3.009,0,0,1,1.729.563,3.287,3.287,0,0,1,1.343,2.056,1.1,1.1,0,0,1-.055.607.853.853,0,0,1-.4.442A.946.946,0,0,1,24.974,11.8ZM.515,7.8l-.032,0a.3.3,0,0,1-.158-.077A1.154,1.154,0,0,1,0,6.769a4.094,4.094,0,0,1,.417-1.6A8.636,8.636,0,0,1,2.252,2.652,8.92,8.92,0,0,1,5.135.894,6.208,6.208,0,0,1,7.192.441l.126,0a2.164,2.164,0,0,1,1.445.57,1.263,1.263,0,0,1,.378.923,1.319,1.319,0,0,1-.379.945,2.634,2.634,0,0,1-1.687.629,7.765,7.765,0,0,0-.858.127,8.039,8.039,0,0,0-2.072.757A7.669,7.669,0,0,0,2.2,5.77c-.126.135-.247.279-.364.419l-.023.027c-.1.121-.2.235-.3.347-.124.135-.239.273-.366.426a1.809,1.809,0,0,0-.1.183c-.024.049-.05.1-.078.155-.048.09-.094.17-.139.238-.082.138-.126.178-.166.2A.376.376,0,0,1,.515,7.8ZM26.2,7.467a.3.3,0,0,1-.048,0A.287.287,0,0,1,26,7.391a.274.274,0,0,1-.083-.143,4.371,4.371,0,0,0-2.347-3.236,10.023,10.023,0,0,0-2.187-.736c-.216-.051-.445-.085-.667-.117a2.76,2.76,0,0,1-1.895-.8,1.547,1.547,0,0,1-.331-1.2,1.275,1.275,0,0,1,.692-.943A2.082,2.082,0,0,1,20.152,0a6.323,6.323,0,0,1,2.32.648l.222.1A7.615,7.615,0,0,1,25.35,2.515a5.735,5.735,0,0,1,1.365,2.523,3.03,3.03,0,0,1-.276,2.3.274.274,0,0,1-.125.109A.285.285,0,0,1,26.2,7.467Z" transform="translate(0 0)"/>
        </g>
        <g id="FACIAL_HAIR" data-name="FACIAL HAIR" transform="translate(69.089 55.121)">
          <path id="_Ink-4" data-name="ðŸ– Ink" d="M13.316,22.536h0a10.96,10.96,0,0,1-2.172-.214,28.02,28.02,0,0,1-6.405-1.647C2.283,19.782.5,18.883.092,18.33A.338.338,0,0,1,0,18.065c.253-1.152.809-1.688,1.748-1.688a6.916,6.916,0,0,1,1.931.421c.349.11.709.223,1.043.3a27.18,27.18,0,0,0,4.63.382c2.037-.444,1.668-3.64,1.529-4.844-.016-.135-.028-.243-.034-.32a3.461,3.461,0,0,1,.777-2.4,2.275,2.275,0,0,1,1.644-.8c.038,0,.076,0,.114,0a2.2,2.2,0,0,1,1.887,1.209,5.279,5.279,0,0,1,.674,1.858c.023.161.045.36.07.591.138,1.276.37,3.412,1.434,3.412a.922.922,0,0,0,.218-.027,10.431,10.431,0,0,0,2.422-1.4c.6-.407,1.161-.792,1.613-1.033a3,3,0,0,1,.809-.129,1.132,1.132,0,0,1,.918.368,1.766,1.766,0,0,1,.22,1.461,16.555,16.555,0,0,1-2.3,3.8A11.082,11.082,0,0,1,13.316,22.536Zm9.222-15.1a3.938,3.938,0,0,1-1.814-.548A7.967,7.967,0,0,0,19.2,6.276c-.645-.17-1.345-.318-2.023-.462a13.645,13.645,0,0,1-3.154-.892A11.885,11.885,0,0,1,9.853,6.105l-.287.044a16.113,16.113,0,0,0-2.269.6,11.059,11.059,0,0,1-3.122.674c-.095,0-.189,0-.28-.01a.18.18,0,0,1-.073.012,1.468,1.468,0,0,1-1-.657,2.357,2.357,0,0,1-.071-2.28A5.342,5.342,0,0,1,5.03,1.958,12.135,12.135,0,0,1,8.613.514,16.323,16.323,0,0,1,12.318,0a5.067,5.067,0,0,1,2.048.349,5.363,5.363,0,0,1,1.768-.26A10.411,10.411,0,0,1,22.011,1.98a5.094,5.094,0,0,1,1.574,2.2,3.978,3.978,0,0,1,.269,2.331,1.086,1.086,0,0,1-.923.89A3.042,3.042,0,0,1,22.538,7.433Z" transform="translate(0 0)"/>
        </g>
        <g id="ACCESORIES" transform="translate(41.005 38.909)">
          <path id="_Ink-5" data-name="ðŸ– Ink" d="M29.528,16.189h0a7.644,7.644,0,0,1-5.217-1.91,7.852,7.852,0,0,1-1.839-2.517,11.412,11.412,0,0,1-.97-3.675c-.17-1.449-.562-1.562-1.61-1.861-.187-.053-.4-.114-.632-.189l-.213-.044c-.222-.045-.451-.091-.676-.156a.963.963,0,0,1-.305.054c-.322,0-.548-.2-.86-.476a6.648,6.648,0,0,0-.527-.432,5.547,5.547,0,0,0-3.49-.907c-2.681,0-6.645.941-11.782,2.8C1.4,7.359,1.148,7.7.8,7.7a.657.657,0,0,1-.375-.13A1.6,1.6,0,0,1,.155,5.817c.762-1.5,4.2-2.39,6.944-2.871a56.3,56.3,0,0,1,8.582-.794c.2,0,.387,0,.544.009A4.284,4.284,0,0,1,17.4,1.955a1.69,1.69,0,0,1,.628.109c1.416-1.14,5.585-2,9.7-2A23.036,23.036,0,0,1,33.45.718,8.306,8.306,0,0,1,37.606,2.94a6.173,6.173,0,0,0,1.881.292A12.106,12.106,0,0,0,44.536,1.7a21.29,21.29,0,0,1,3-1.231A35.154,35.154,0,0,1,53.233,0a15.69,15.69,0,0,1,4.2.453c1.293.375,1.986.978,2.058,1.794a4.064,4.064,0,0,1-.186,2.5.381.381,0,0,1-.314.206.557.557,0,0,1-.342-.156c-1.441,1.087-1.829,2.7-2.241,4.406a9.675,9.675,0,0,1-1.447,3.693,4.551,4.551,0,0,1-1.786,1.478,5.7,5.7,0,0,1-2.437.536,6.508,6.508,0,0,1-4.694-2.078,9.126,9.126,0,0,1-1.807-2.819,14.772,14.772,0,0,1-1.013-4.2,3.683,3.683,0,0,0-1.391-.262,8.562,8.562,0,0,0-1.506.178,10.613,10.613,0,0,1-1.293.177,8.787,8.787,0,0,1-.311,3.839,8.578,8.578,0,0,1-1.745,3.073,10.105,10.105,0,0,1-7.449,3.376ZM30.653,2.973c-2.426,0-5.688.521-7.456,3a2.979,2.979,0,0,0-.332,2.537c1.536,5.2,4.4,6.287,6.535,6.287a8.025,8.025,0,0,0,2.146-.316A8.382,8.382,0,0,0,35.625,11.9a7.4,7.4,0,0,0,1.862-4.4,4.69,4.69,0,0,0-1.328-3.7A18.973,18.973,0,0,0,30.653,2.973ZM51.576,2.01a5.467,5.467,0,0,0-1.424.189,7,7,0,0,0-3.144,1.813,6.825,6.825,0,0,0-1.866,3.6,4.941,4.941,0,0,0,.1,1.919,3.719,3.719,0,0,0,.668,1.546,7.832,7.832,0,0,0,5.265,2.546,3.751,3.751,0,0,0,1.643-.354c2.444-1.311,2.961-4.864,3.3-7.215a3.033,3.033,0,0,0-.773-2.433A5,5,0,0,0,51.576,2.01Z" transform="translate(0 0)"/>
        </g>
      </g>
      <g id="openpeeps_peep-06_copy" data-name="openpeeps / peep-06 copy" transform="translate(189.969 20.775)">
        <g id="BODY-2" data-name="BODY" transform="translate(0.34 63.848)">
          <path id="_Background-3" data-name="ðŸŽ¨ Background" d="M116.776,112.513c2.9-.14,1.734-5.215,1.525-7.078-2.3-6.807-1.756-14.233-2.659-21.367-.563-6.66-1.285-13.3-1.893-19.954C112.555,50.6,103.98,23.1,94.194,18.682,92.962,13.271,87.87,8.22,81.429,8.22,77.035,3.017,71.747-.644,64.964.095c-2.8.128-5.521,3.1-8.207,3.676-1.5.207-14.849-.326-17.523,1.262-1.862.956-3.543,2.724-3,4.974.874,2.726-1.841-.224-7.5,2.686C17.186,19.632,24.087,28.914,24.393,29.2,17.186,39.232,10.887,47.37,7.972,59.631c-1.889,9.1-1.676,18.5-3.259,27.648A81.023,81.023,0,0,1,2.37,96.6C1.365,100.628.876,110.677.322,110.766c-1.009.251.583,2.324,1.653,2.326,29.654,4.921,59.774.2,89.587-.567C99.964,112.233,108.375,112.166,116.776,112.513Z" transform="translate(1.576)" fill="#fff"/>
          <path id="_Ink-6" data-name="ðŸ– Ink" d="M73.513,113.576a.347.347,0,0,1-.352-.339c-.436-6.333-.719-12.632-.993-18.724-.2-4.337-.319-8.779-.379-13.581H71.77l-.243,0h0l-.353,0h0c-3.243.014-6.6.029-9.893.029-2.821,0-5.329-.011-7.669-.033l.006.006a.155.155,0,0,1,.02.032,8.74,8.74,0,0,1,.454,3.352,16.579,16.579,0,0,1-.462,3.646c-.9,3.783-3.123,7.589-6.622,11.313l-.1.1c-.105.111-.214.224-.319.332a7.911,7.911,0,0,0-1.625,2.107,11.1,11.1,0,0,0-.684,2.492v0c-.041.213-.084.433-.128.644l-.026.12-.852,3.937c-.058.267-.106.557-.157.864A5.4,5.4,0,0,1,41.932,113a1.574,1.574,0,0,1-1.065.441,1.681,1.681,0,0,1-1.515-1.123,3.57,3.57,0,0,1,.1-2.234c.033-.128.067-.259.1-.386l1.574-6.62a11.611,11.611,0,0,1,1.1-3.136,9.7,9.7,0,0,1,2.26-2.445l.006-.005a27.926,27.926,0,0,0,4.365-4.722,23.972,23.972,0,0,0,3.085-5.637,20.318,20.318,0,0,0,.9-3.1c.1-.482.149-.979.2-1.46a13.9,13.9,0,0,1,.219-1.555.193.193,0,0,1,.138-.136.085.085,0,0,1,.009-.074.076.076,0,0,1,.06-.033l4.79-.307c4.734-.306,8.717-.572,12.768-.879l.751-.054c-.053-5.505-.02-11.435.1-18.127.038-2.087.062-4.209.085-6.261.039-3.4.079-6.911.182-10.365.085-2.844.269-5.64.455-8.238.157-2.191.391-4.405.618-6.547l0-.015c.063-.6.129-1.217.192-1.827a.106.106,0,0,1,.211,0l.21,2.022c.243,2.36.5,4.876.678,7.415.223,3.106.371,6.231.441,9.287.26,11.244.3,22.622.32,32.4,1.451-.1,2.884-.2,4.382-.293,1.065-.069,2.1-.133,2.974-.186l2.528-.153,1.041-.064c.1-.006.2-.015.3-.023.188-.016.382-.033.57-.033a1.331,1.331,0,0,1,1.126.459.736.736,0,0,1,.112.87c-.395.638-.982.659-1.663.684h-.009l-.137.005-2.03.08h-.051c-1.225.048-2.839.109-4.461.154-1.533.043-3.108.079-4.681.106-.016,4.555-.2,9.065-.408,13.669l-.092,2.049c-.278,6.182-.537,11.375-.9,16.627A.347.347,0,0,1,73.513,113.576Zm-44.9-.592a.932.932,0,0,1-.829-.467l.1.069a.17.17,0,0,0,.032.018,3.439,3.439,0,0,0-.341-.26l-.252-.327a2.047,2.047,0,0,1-.348-.876,5.061,5.061,0,0,1,.02-1.173c.013-.135.026-.274.034-.408l.58-8.948c.167-2.572.346-5.182.52-7.706.3-4.316.6-8.776.854-13.166.164-2.884.32-6.3.227-9.74a71.174,71.174,0,0,0-.782-9.71.3.3,0,0,1,.066-.25.291.291,0,0,1,.218-.1.271.271,0,0,1,.23.137A21.22,21.22,0,0,1,31.281,65.1a28.049,28.049,0,0,1,1.109,5.441,61.659,61.659,0,0,1,.075,10.02c-.193,3.525-.418,7.05-.651,10.652l-.352,5.444-.885,13.646a2.571,2.571,0,0,1-1.125,2.318,2,2,0,0,1-.346.238A1.041,1.041,0,0,1,28.618,112.984Zm-26.326-.222a1.531,1.531,0,0,1-1.437-1.1A21.722,21.722,0,0,1,0,104.673a40.924,40.924,0,0,1,.748-7.025c.57-3.121,1.365-6.248,2.133-9.272.355-1.4.722-2.843,1.063-4.269A80.278,80.278,0,0,0,5.874,72.082c.088-1.04.168-2.1.246-3.121v-.005c.238-3.131.483-6.368.973-9.527A42.164,42.164,0,0,1,10.759,47.56a74.725,74.725,0,0,1,5.887-9.807A80.994,80.994,0,0,1,25.39,27.022a1.779,1.779,0,0,1-.861-.277,3.4,3.4,0,0,1-1.346-2.475,17.463,17.463,0,0,1,.348-6.589,11.033,11.033,0,0,1,6.653-7.735,8.552,8.552,0,0,1,2.734-.458c.084,0,.174,0,.276,0,.137,0,.277,0,.413,0h0c.135,0,.288,0,.435,0A5.075,5.075,0,0,0,35.61,9.3c1.263-.415,1.86-1.849,2.338-3l.007-.016.095-.227L38.074,6a8.208,8.208,0,0,1,2.843-3.819A13.151,13.151,0,0,1,46.081.388l.113-.019A26.191,26.191,0,0,1,50.466,0a16.738,16.738,0,0,1,7.885,1.775.033.033,0,0,1,.016.039.034.034,0,0,1-.032.027l-1.193-.048C55.7,1.737,54.5,1.7,53.283,1.7a31.338,31.338,0,0,0-7.382.745l-.38.091a9.307,9.307,0,0,0-3.8,1.608,7.767,7.767,0,0,0-1.981,3.231l-.046.112-.066.158A6.539,6.539,0,0,1,37.4,10.69a7.176,7.176,0,0,1-3.817.915c-.3.015-.615.032-.919.056a7.043,7.043,0,0,0-3.81,1.553,8.969,8.969,0,0,0-2.54,3.28,12.911,12.911,0,0,0-1.063,4.931,15.63,15.63,0,0,0,.079,2.589c.034.254.358,1.236.536,1.236h.006A.891.891,0,0,1,26,25.241a.766.766,0,0,1,.724.458c.97-.937,1.946-1.824,2.9-2.636a55.78,55.78,0,0,1,7.974-5.68,52.07,52.07,0,0,1,6.765-3.446h-.026a1.117,1.117,0,0,0-.521.126.078.078,0,0,1-.11-.039.073.073,0,0,1,.016-.081,2.361,2.361,0,0,1,1.767-.774,3.333,3.333,0,0,1,.751.092c.207-.066.395-.123.573-.175a.091.091,0,0,1,.025,0,.078.078,0,0,1,.075.059.087.087,0,0,1-.035.1l-.219.14a11.905,11.905,0,0,1,2.67,1.462l.018.012a49.384,49.384,0,0,1,5.488,4.488l.015.014.528.475.353.316a41.42,41.42,0,0,0,5.4,4.234,19.093,19.093,0,0,0,3.2,1.675c.218.086.465.164.726.246.891.281,1.9.6,2.248,1.386a.921.921,0,0,1,.216.724,1.054,1.054,0,0,1-.452.709,1.548,1.548,0,0,1-1.2.461,6.2,6.2,0,0,1-2.108-.515,22.431,22.431,0,0,1-3.281-1.576,34.78,34.78,0,0,1-5.658-4.261c-1.213-1.1-2.4-2.258-3.547-3.382-.58-.568-1.179-1.154-1.774-1.725-.375-.359-.751-.728-1.115-1.086-.385-.377-.781-.766-1.176-1.143l-.387-.366-.18-.171-.008-.008a7.744,7.744,0,0,0-1.365-1.114c-.433.258-.874.516-1.3.765-.689.4-1.4.818-2.092,1.244-1.4.864-2.892,1.867-4.567,3.065A69.96,69.96,0,0,0,29.2,26.132,81.934,81.934,0,0,0,17.168,41.294l-.262.417a56.914,56.914,0,0,0-5.125,9.823A44.642,44.642,0,0,0,9.25,63.388c-.174,1.845-.3,3.724-.417,5.542-.14,2.137-.285,4.346-.514,6.513A93.461,93.461,0,0,1,6.056,87.589l-.232.951-.15.612A88.9,88.9,0,0,0,3.581,99.408a42.647,42.647,0,0,0-.354,5.938,41.725,41.725,0,0,0,.456,4.836c.048.355.1.718.142,1.077a1.5,1.5,0,0,1-1.311,1.486A1.5,1.5,0,0,1,2.292,112.762Zm118.062-2.012a1.606,1.606,0,0,1-1.662-1.59A122.8,122.8,0,0,0,116.413,92.4c-.4-2.189-.816-4.451-1.176-6.692a175.77,175.77,0,0,1-1.632-18.3c-.416-7.7-.846-15.655-2.6-23.3a56.438,56.438,0,0,0-5.851-15.316,39.286,39.286,0,0,0-4.679-6.674A43.152,43.152,0,0,0,95.505,17.2a1.073,1.073,0,0,1-.769.3,1.351,1.351,0,0,1-1.267-.861,4.257,4.257,0,0,1-.181-1.077,6.031,6.031,0,0,0-.1-.79,9.256,9.256,0,0,0-.52-1.655,10.882,10.882,0,0,0-1.882-2.933,12.164,12.164,0,0,0-2.844-2.332,9.679,9.679,0,0,0-2.088-.85c-.423-.134-.861-.273-1.287-.449a.046.046,0,0,1-.03-.043.041.041,0,0,1,.03-.038,3.684,3.684,0,0,1,1.207-.185A9.641,9.641,0,0,1,88.5,6.8a10.273,10.273,0,0,1,3.6,2.069A10.929,10.929,0,0,1,94.772,12.3l.062.126c.562,1.153,1.273,2.844.966,4.214-.01.041-.019.077-.029.109a25.69,25.69,0,0,1,6.588,4.567,36.429,36.429,0,0,1,5.8,7.4,52.827,52.827,0,0,1,6.293,17.368,144.045,144.045,0,0,1,2.036,18.5l.19,3.1a158.573,158.573,0,0,0,2.15,20l.091.477c.281,1.451.593,2.93.895,4.36,1.143,5.419,2.326,11.022,2.172,16.633A1.572,1.572,0,0,1,120.353,110.75ZM101.812,109.5a1.22,1.22,0,0,1-.916-.4c-.847-.914-.907-2.393-.96-3.7-.015-.369-.029-.718-.06-1.045-.115-1.227-.248-2.479-.4-3.721l-.075-.619q-.043-.346-.084-.694a32.916,32.916,0,0,0-.554-3.536,5.964,5.964,0,0,0-1.713-3.023c-.26-.259-.528-.517-.786-.766-.628-.606-1.278-1.233-1.863-1.912a26.5,26.5,0,0,1-2.378-3.243,21.841,21.841,0,0,1-1.544-3.089l-.074-.176c-.077-.183-.161-.374-.251-.576a7.412,7.412,0,0,1-.86-2.933.064.064,0,0,1,.109-.045,4.385,4.385,0,0,1,.746,1.025c.082.138.166.281.253.415.366.563.75,1.113,1.142,1.635.809,1.079,1.721,2.1,2.586,3.052a36.94,36.94,0,0,0,2.644,2.617c.349.313.718.618,1.075.914A19.288,19.288,0,0,1,99.8,91.457c1.77,1.933,2.152,4.533,2.522,7.047q.039.263.078.524l.044.288c.237,1.536.458,3.136.659,4.755l.009.07c.091.737.185,1.5.26,2.25l.024.245a3.279,3.279,0,0,1-.347,2.19A1.524,1.524,0,0,1,101.812,109.5Zm9.181-.534a1.623,1.623,0,0,1-1.313-.752,5.539,5.539,0,0,1-.567-2.825c-.012-.354-.023-.689-.054-.987-.145-1.409-.266-2.488-.391-3.5-.288-2.317-.669-4.633-1.039-6.792-.436-2.545-.987-5.114-1.519-7.6v0c-.45-2.1-.916-4.273-1.31-6.42a82.154,82.154,0,0,1-1.535-14.536c-.018-3.353.222-6.757.453-10.048.109-1.551.222-3.155.306-4.732.247-4.616.541-9.52.9-14.992a.113.113,0,0,1,.116-.109.106.106,0,0,1,.109.109q.04,1.855.078,3.711c.047,2.279.077,4.595.107,6.835.1,7.568.2,15.393.972,23.057a120.525,120.525,0,0,0,2.345,13.894c.248,1.136.506,2.288.756,3.4l0,.015c.267,1.19.542,2.42.806,3.632q.145.664.292,1.329c.4,1.825.819,3.712,1.139,5.579a69.028,69.028,0,0,1,.894,6.868l.019.3c.013.211.035.439.058.681a5.278,5.278,0,0,1-.283,3.064A1.592,1.592,0,0,1,110.993,108.971ZM73.02,25.878a5.641,5.641,0,0,1-3.37-1.439l-.116-.088c-1.177-.891-2.233-1.742-3.229-2.6a50.812,50.812,0,0,1-5.965-5.992,27.837,27.837,0,0,1-4.564-7.013.173.173,0,0,1,.014-.164.148.148,0,0,1,.122-.07.156.156,0,0,1,.107.047c.572.545,1.122,1.124,1.537,1.569.006-.327-.016-.66-.037-.983a8.439,8.439,0,0,1-.014-1.4c.03-.289.048-.593.066-.887a9.426,9.426,0,0,1,.281-2.076,1.776,1.776,0,0,1,1.684-1.272,1.69,1.69,0,0,1,.448.061,1.863,1.863,0,0,1,1.112.943,1.467,1.467,0,0,1,.1,1.19,10.281,10.281,0,0,1-1.075,1.944c-.149.229-.3.464-.445.7A9.384,9.384,0,0,1,58.8,9.5a9.88,9.88,0,0,0-.828,1.075l.55.594c.334.359.59.63.83.879l.959.995c.715.739,1.485,1.527,2.273,2.287a72.384,72.384,0,0,0,7.129,6.195c.556.41,1.151.844,1.764,1.25l.224.148a2.4,2.4,0,0,0,1.255.495c.038,0,.076,0,.114-.005a5.246,5.246,0,0,0,2.75-1.816c.134-.135.261-.262.383-.379l.043-.042a46.653,46.653,0,0,0,5.633-6.408c.357-.494.72-1.019,1.078-1.56-.652-.762-.651-2.115-.65-3.2,0-.259,0-.5-.008-.721-.029-.752-.034-1.518-.038-2.258V6.87l0-.162V6.653a2.015,2.015,0,0,1,.305-1.392.059.059,0,0,1,.047-.02.084.084,0,0,1,.038.009,1.715,1.715,0,0,1,.755.993l.047.11.02.047c.185.42.366.849.541,1.265l.015.035.147.347c.215.508.418,1.032.615,1.538l.079.2c.1.268.206.542.3.816.054.155.112.321.185.522l.015.013a1.557,1.557,0,0,1,.217.224,1.091,1.091,0,0,1,.559.71,2.284,2.284,0,0,1-.556,1.878l-.055.084A47.235,47.235,0,0,1,80.19,20.87c-.974,1.027-2.019,2.03-3.108,2.981l-.189.164a6.826,6.826,0,0,1-3.325,1.822A3.688,3.688,0,0,1,73.02,25.878Z" transform="translate(0 1.93)"/>
        </g>
        <g id="HEAD-2" data-name="HEAD" transform="translate(18.796 -14.53)">
          <path id="_Background-4" data-name="ðŸŽ¨ Background" d="M54.094,31.384c-.357-4.615.2-9.452-1.583-13.839-3.1-7.278-11.8-9.7-18.54-12.476-2.7-.8-11.789-.91-14.952-1.967C11.862.712,10.152-2.137,4.465,2.416a6.185,6.185,0,0,0-2,2.778l.018,0a1.54,1.54,0,0,0,.291,1.329A9.284,9.284,0,0,0,.542,16.187c4.129,8.735,3.935,13.458,2.6,22.848C1.409,47.8,5.379,51,11.954,55.773a1.616,1.616,0,0,0,.026,1.667c7.6,10.688,21.937,15.791,34.219,10.366,4.985-2.22,7.211-7.531,8.481-12.324A34.3,34.3,0,0,0,55.41,39,68.3,68.3,0,0,1,54.094,31.384Z" transform="translate(20.557 19.767)" fill="#fff"/>
          <path id="_Ink-7" data-name="ðŸ– Ink" d="M57.7,90.771a24.673,24.673,0,0,1-9.1-1.874c-.953-.379-1.212-.935-1.136-1.329a.8.8,0,0,1,.843-.6,1.423,1.423,0,0,1,.45.078,27.266,27.266,0,0,0,8.251,1.517,14.768,14.768,0,0,0,1.907-.118,21.905,21.905,0,0,0,6.23-1.646,13.343,13.343,0,0,0,5.085-3.92,18.291,18.291,0,0,0,3.294-7.251,43.927,43.927,0,0,0,.859-11.64c-.05-1.241-.15-2.5-.247-3.723-.113-1.418-.229-2.884-.268-4.326-.028-1.055-.04-2.127-.053-3.164-.018-1.542-.037-3.136-.106-4.7l-.039-.894c-.043-1-.092-2.07-.171-3.14-.029-.124-.057-.25-.083-.372-.061-.279-.125-.566-.2-.843a18.08,18.08,0,0,0-1.232-3.139.872.872,0,0,1-.375.171,6.048,6.048,0,0,1-1.077.1,4.581,4.581,0,0,1-1.9-.4,4.677,4.677,0,0,1-1.224-.794,1.86,1.86,0,0,1-.389-.461h-.036a1.549,1.549,0,0,1-1.2-.471,1.113,1.113,0,0,1-.26-1.151l.013-.037-.033-.012a5.772,5.772,0,0,1-2.051,2.537,8.212,8.212,0,0,1-4.723,1.271l-.245,0a34,34,0,0,1-5.268-.539c-.566-.09-1-.175-1.4-.276l-.02.021c-.011.012-.023.024-.035.036a5.122,5.122,0,0,1-3.549,1.448,5.265,5.265,0,0,1-2.092-.439,8.744,8.744,0,0,1-2.9-2.161c-.013.5-.039.968-.077,1.4l-.017.184a3.669,3.669,0,0,1-.9,2.4,2.206,2.206,0,0,1-1.579.61,4.854,4.854,0,0,1-2.223-.663c0,.031,0,.065,0,.1q.493,1.675.989,3.353l.071.238.075.246a10.717,10.717,0,0,1,.5,2.174,2.821,2.821,0,0,1-.647,2.129,1.8,1.8,0,0,1-1.356.6,2.356,2.356,0,0,1-.679-.106,5.644,5.644,0,0,1-2.033-1.371c-.119-.107-.231-.209-.345-.309l-.448-.388a42.629,42.629,0,0,1,2.039,11.68.39.39,0,0,1-.384.384l-.122,0a3.706,3.706,0,0,1-1.349-.268.773.773,0,0,1-.082-.008,5.552,5.552,0,0,1-2.251-.851,4.171,4.171,0,0,1,.183,1.569.141.141,0,0,1-.141.124.105.105,0,0,1-.108-.091A3.689,3.689,0,0,0,30.9,59.513a4.22,4.22,0,0,0-2.49-.879,3.3,3.3,0,0,0-.613.057,5.135,5.135,0,0,0-3.953,4.185,7.421,7.421,0,0,0,.21,3.362,8.122,8.122,0,0,0,1.57,2.99A4.337,4.337,0,0,0,28.153,70.8a3.318,3.318,0,0,0,.516.041,3.154,3.154,0,0,0,.884-.124,4.825,4.825,0,0,0,.462-.173l0,0,.09-.037a2.568,2.568,0,0,1,.4-.113,2.22,2.22,0,0,0,.43-.126.734.734,0,0,1,.3-.067.619.619,0,0,1,.556.924,2.468,2.468,0,0,1-.9,1.121,7.853,7.853,0,0,1,.6.884c.072.118.128.212.165.262A26.611,26.611,0,0,0,33.5,75.643a19.437,19.437,0,0,0,2.191,2.013l.327.259a7.727,7.727,0,0,1,1.932,2,1,1,0,0,1,.006,1.029,1.04,1.04,0,0,1-.9.549h-.014c-2.462-.035-4.228-2.189-5.49-4.062-.176-.263-.347-.547-.507-.844a1.844,1.844,0,0,1-.19.255l.139.375a.841.841,0,0,1-.092.806,1.2,1.2,0,0,1-.967.487.893.893,0,0,1-.828-.5,15.684,15.684,0,0,0-1.3-2.132,1.1,1.1,0,0,1-.723-.44c-.126-.183-.26-.369-.389-.549-.279-.391-.568-.795-.823-1.21-.2-.189-.408-.376-.638-.57l-.049.043c-.046.041-.094.083-.14.126a7.969,7.969,0,0,1-1.03,1.728l-.089.114a5.531,5.531,0,0,1-3.139,2.294.439.439,0,0,1-.082.008.5.5,0,0,1-.455-.314.37.37,0,0,1,.112-.424,14.354,14.354,0,0,1,1.195-.93,10.383,10.383,0,0,0,1.615-1.345,10.157,10.157,0,0,0,1.113-1.456l.074-.12c.048-.08.1-.164.166-.267l-1.1-.753L23.4,71.8a9.7,9.7,0,0,1-2.082,1.245,14.57,14.57,0,0,0-1.452.78l-.114.074a.966.966,0,0,1-.542.175,1.089,1.089,0,0,1-.958-.7,1.028,1.028,0,0,1,.2-1.153A22.689,22.689,0,0,0,20.3,69.987c.21-.275.425-.558.64-.83a6,6,0,0,1-.63-2.376c-.024-.215-.044-.433-.062-.645l-.006-.069h-.038a2.894,2.894,0,0,1-1.625-.535l-.187-.134a5.682,5.682,0,0,1-1.7.27l-.138,0a1.536,1.536,0,0,1-1.4-.92,1.67,1.67,0,0,1,.285-1.776,3.146,3.146,0,0,1,2.4-1.031A3.629,3.629,0,0,1,19.2,62.2l.123-.066a1.456,1.456,0,0,1,.022-.747l-.02-.134a3.467,3.467,0,0,1-.528-1.422,3.3,3.3,0,0,1,.05-1.209,2.1,2.1,0,0,1,.095-.278c.018-.045.035-.089.051-.133a2.66,2.66,0,0,1-.181-.795c-.027-.032-.057-.068-.084-.107a2.138,2.138,0,0,1,.1-2.644c0-.046.007-.092.013-.136-.037-.082-.068-.16-.1-.238a2.679,2.679,0,0,1-.928-2.165,2.259,2.259,0,0,1,.578-1.324.75.75,0,0,1,.006-.524,7.93,7.93,0,0,1-.078-4.512,2.037,2.037,0,0,1-.114-.747,2.3,2.3,0,0,1,.661-1.5,2.086,2.086,0,0,1,1.489-.655h.022a1.941,1.941,0,0,1,.394.046l0-.027a3.043,3.043,0,0,1,.273-.932.586.586,0,0,1-.183-.1,10.307,10.307,0,0,1-2.345.9.709.709,0,0,1-.172.021.825.825,0,0,1-.7-.431.658.658,0,0,1,.029-.693,5.07,5.07,0,0,1,.573-.715,7.413,7.413,0,0,0-.9.061,1.056,1.056,0,0,1-.135.009,1.818,1.818,0,0,1-1.367-.81c-.374.365-.757.734-1.126,1.091l-.191.185a1.684,1.684,0,0,1-1.185.5,1.856,1.856,0,0,1-1.786-1.639,2.518,2.518,0,0,1-.912-.453,15.545,15.545,0,0,1-5.576,1.261H5a1.645,1.645,0,0,1-1.441-.857,1.856,1.856,0,0,1-.036-1.844,8.989,8.989,0,0,1,1.6-2.051,18.733,18.733,0,0,1-2.983.646.925.925,0,0,1-.122.008,1.75,1.75,0,0,1-1.428-.9,6.672,6.672,0,0,1,.2-5.867c.028-.056.06-.112.09-.166l.03-.053c.1-.246.209-.5.329-.741a3.792,3.792,0,0,1-1.016-2.21,4.905,4.905,0,0,1,.362-2.438A1.565,1.565,0,0,1,.4,23.3a11.752,11.752,0,0,1,2.129-3.568,3.778,3.778,0,0,1-.228-.539,4.479,4.479,0,0,1,1.277-4.51,6.185,6.185,0,0,1,2.538-1.351A7.256,7.256,0,0,1,7.584,11.5l.005-.011c.02-.045.042-.092.065-.137A5.168,5.168,0,0,1,9.494,9.369a6.05,6.05,0,0,1,2.487-.857A1.77,1.77,0,0,1,13.154,7a5.51,5.51,0,0,1,.818-1.632,2,2,0,0,1,1.585-.883,1.742,1.742,0,0,1,.869.239,10.8,10.8,0,0,1,1.423.97,1.94,1.94,0,0,1,.685-.175l.065,0,1.48-.075c.384-.17.774-.349,1.151-.522l.706-.322a4.976,4.976,0,0,1,1.241-.755,5.045,5.045,0,0,1,1.565-.376,13.423,13.423,0,0,1,1.3-.359,14.342,14.342,0,0,1,3.054-.341h.121c.022-.28.033-.563.031-.84l0-.142A1.779,1.779,0,0,1,30.8.021a1.754,1.754,0,0,1,1.952,1.242l.017.043c.1.266.219.529.353.8a6.444,6.444,0,0,1,2.825-.644,4.856,4.856,0,0,1,4.241,2.1c.93,1.463.532,3.137.146,4.755-.045.187-.091.381-.133.568l-.258,1.145a1.766,1.766,0,0,1,.858,1.475l0,.045-.1,1.6a8.244,8.244,0,0,0,.909-1.1c.193-.352.4-.692.608-1.009a1.766,1.766,0,0,1,1.488-.849,1.9,1.9,0,0,1,1.591.893,1.751,1.751,0,0,1,.018,1.766,10.715,10.715,0,0,1-.675,1.138,10.118,10.118,0,0,0-.677,1.653,1.578,1.578,0,0,1,.924,1.431,4.415,4.415,0,0,1-2.222,4.018,1.624,1.624,0,0,1-.871.262,1.544,1.544,0,0,1-.371-.046c-.061.082-.134.18-.2.281a9.05,9.05,0,0,1,1.518,1.569,27.468,27.468,0,0,1,3.986-.295,7.3,7.3,0,0,1,3.228-.671,12.491,12.491,0,0,1,2.094.19,20.847,20.847,0,0,1,2.1.51c.4.111.806.226,1.212.324a15.679,15.679,0,0,0,2.117.313c.465.047.945.1,1.417.172A5.537,5.537,0,0,1,62.5,25.729a5.366,5.366,0,0,1,2.636.9c1.179.752,2.373,1.523,3.527,2.269q.974.63,1.95,1.258a1.868,1.868,0,0,1,.834,1.975l-.009.051-.061.334.144.2.126.178a12.385,12.385,0,0,1,1.4,2.31,26.815,26.815,0,0,1,1.81,3.02,22.012,22.012,0,0,1,1.721,4.413c.094.36.2.768.267,1.168a3.074,3.074,0,0,1-.065,1.145c-.023.12-.046.245-.066.374-.047.324-.081.655-.113.975-.035.349-.072.709-.126,1.062a.834.834,0,0,1-.851.681c.15,1.138.257,2.273.362,3.433.158,1.771.259,3.549.33,4.9A3.885,3.885,0,0,0,78.308,57.7a2.887,2.887,0,0,0,.747.094,5.888,5.888,0,0,0,1.953-.424.554.554,0,0,1,.189-.034.594.594,0,0,1,.506.319.649.649,0,0,1,.019.646,2.412,2.412,0,0,1-2.189,1.185,4.073,4.073,0,0,1-1.717-.4,3.672,3.672,0,0,1-1.423-1.145c.025.509.05,1.006.071,1.425l.022.431c.045.837.1,1.694.152,2.523.268,4.2.544,8.546-.244,12.7a19.736,19.736,0,0,1-2.2,6.026,19.417,19.417,0,0,1-3.9,4.878,18.816,18.816,0,0,1-5.224,3.355,18.4,18.4,0,0,1-6.185,1.457C58.5,90.759,58.1,90.771,57.7,90.771ZM29.76,72.681c-.153.033-.3.058-.444.075l.033.081.1.252c.122.069.244.133.363.192A3.105,3.105,0,0,1,29.76,72.681Zm-7.6-2.029a3.322,3.322,0,0,1,.381.022v-.022l-.01,0c-.023-.008-.047-.016-.07-.027a3.364,3.364,0,0,1-.407-.233l-.1.184-.048.089C21.992,70.655,22.078,70.652,22.157,70.652ZM37.368,22.869h0c-1.751.046-4.613.718-8.3,3.658a29.16,29.16,0,0,0-5.16,5.433,31.371,31.371,0,0,0-1,3.047c-.118.435-.21.88-.3,1.31-.05.243-.1.493-.157.739l-.048.21a3.3,3.3,0,0,0-.277.724,2.136,2.136,0,0,0,1.019.564.63.63,0,0,1,.313.182,6.619,6.619,0,0,0,.749-1.667l.006-.027a34.338,34.338,0,0,1,1.965-2.878,34.1,34.1,0,0,1,6.65-6.833,21.846,21.846,0,0,1,6.445-3.373,7.061,7.061,0,0,0-1.908-1.087ZM31.923,66.62h0l-.047,0a3.414,3.414,0,0,1-2.166-1.453c-.218-.245-.425-.475-.644-.68a14.44,14.44,0,0,0-2.936-2.153.178.178,0,0,1,.07-.327h.018a9.106,9.106,0,0,1,3.66.862l.1.05c1.22.606,2.826,1.567,2.683,2.912A.82.82,0,0,1,31.923,66.62Z" transform="translate(0 0)"/>
        </g>
        <g id="FACE-2" data-name="FACE" transform="translate(65.612 35.757)">
          <path id="_Ink-8" data-name="ðŸ– Ink" d="M16.211,28.793a5.708,5.708,0,0,1-2.167-.433,6.081,6.081,0,0,1-2.567-1.975,1.19,1.19,0,0,1-.24-.922,1.328,1.328,0,0,1,.516-.832,1.277,1.277,0,0,1,.759-.264,1.1,1.1,0,0,1,.169.013,1.171,1.171,0,0,1,.784.518l.046.064a4.047,4.047,0,0,0,1.482,1.244,3.362,3.362,0,0,0,1.469.343,3.255,3.255,0,0,0,.365-.021,4.883,4.883,0,0,0,2.988-1.713c.1-.106.214-.221.337-.353a.531.531,0,0,1,.28-.215.577.577,0,0,1,.182-.029.617.617,0,0,1,.507.265.562.562,0,0,1,.1.372,3.83,3.83,0,0,1-1.271,2.437,5.628,5.628,0,0,1-2.768,1.415A5.357,5.357,0,0,1,16.211,28.793Zm1.526-8.644h0a7.033,7.033,0,0,1-4.064-1.624.894.894,0,0,1-.263-1.035,1.087,1.087,0,0,1,.946-.76.818.818,0,0,1,.446.137l.15.116a5.674,5.674,0,0,0,3.024,1.483,1.805,1.805,0,0,0,1.345-.6,1.99,1.99,0,0,0,.377-1.6,4.364,4.364,0,0,0-2.018-2.4.378.378,0,0,1-.1-.434.56.56,0,0,1,.545-.387.764.764,0,0,1,.129.011,3.6,3.6,0,0,1,2.4,1.407,3.533,3.533,0,0,1,.615,2.36,3.767,3.767,0,0,1-1.025,2.3A3.394,3.394,0,0,1,17.737,20.149ZM5.582,11.708A1.258,1.258,0,0,1,4.37,10.6a9.025,9.025,0,0,1,.048-2.349c.028-.228.058-.464.078-.719a1.405,1.405,0,0,1,.532-1.005,1.641,1.641,0,0,1,1.009-.355,1.129,1.129,0,0,1,1.185.991,6.3,6.3,0,0,1-.658,3.885A1.086,1.086,0,0,1,5.582,11.708Zm17.841-.533a1.071,1.071,0,0,1-.84-.36,3.619,3.619,0,0,1-.774-1.92,2.224,2.224,0,0,1,.606-1.909,1.235,1.235,0,0,1,.1-.148,1.373,1.373,0,0,1,1.056-.608,1.144,1.144,0,0,1,.321.047,1.546,1.546,0,0,1,1.032.9,4.607,4.607,0,0,1-.4,3.386A1.233,1.233,0,0,1,23.423,11.175ZM.2,5.578a.2.2,0,0,1-.163-.1.217.217,0,0,1-.013-.213A8.8,8.8,0,0,1,3.9,1.646,9.543,9.543,0,0,1,6.541.725L6.823.676A6.846,6.846,0,0,1,7.973.551a1.78,1.78,0,0,1,1.421.53,1.209,1.209,0,0,1,.285.858.786.786,0,0,1-.285.561,2.19,2.19,0,0,1-1.5.44c-.119,0-.236,0-.36-.006H7.512c-.115,0-.233-.005-.352-.005s-.223,0-.32.008a10.146,10.146,0,0,0-2.233.381A15.161,15.161,0,0,0,.3,5.544.185.185,0,0,1,.2,5.578ZM27.362,4.441h0l-.014,0-.1-.027a6.656,6.656,0,0,1-1.3-.508l-.423-.208a11.711,11.711,0,0,0-1.51-.644,17.818,17.818,0,0,0-3.441-.761,1.4,1.4,0,0,1-.69-.261,1.038,1.038,0,0,1-.386-.589,1.052,1.052,0,0,1,.119-.881,1.122,1.122,0,0,1,.545-.47A1.225,1.225,0,0,1,20.618,0a1.373,1.373,0,0,1,.268.027L21.1.071a15.4,15.4,0,0,1,3.716,1.208,5.812,5.812,0,0,1,2.79,2.569c.044.337-.006.4-.039.442l-.012.015-.011.014a.3.3,0,0,1-.184.123Z" transform="translate(0 0)"/>
        </g>
        <g id="FACIAL_HAIR-2" data-name="FACIAL HAIR" transform="translate(52.257 50.767)">
          <path id="_Ink-9" data-name="ðŸ– Ink" d="M30.456,27.921h0c-1.232,0-2.511-.124-3.539-.224a40.151,40.151,0,0,1-8.955-1.959c-1.359-.459-2.759-1-4.281-1.667l-.62-.267a29.169,29.169,0,0,1-3.52-1.7,13.554,13.554,0,0,1-2.555-2.212c-.139-.142-.277-.283-.414-.42a46.616,46.616,0,0,1-4.067-4.546A10.031,10.031,0,0,1,.2,10.13a31.821,31.821,0,0,1,.37-9Q.615.769.662.414A.128.128,0,0,1,.786.31.076.076,0,0,1,.863.365c0-.028,0-.055,0-.083v0c0-.027,0-.053,0-.08A.182.182,0,0,1,.9.06.207.207,0,0,1,1.052,0a.2.2,0,0,1,.2.144A17.766,17.766,0,0,0,5.18,7.133a38.227,38.227,0,0,0,8.073,6.108l.9.561a.758.758,0,0,1,.371-.2,8.374,8.374,0,0,1,1.343-2.92,12.953,12.953,0,0,1,2.122-2.353A17.725,17.725,0,0,1,29.316,4.138,13.831,13.831,0,0,1,34.794,5.21a11.752,11.752,0,0,1,5.479,4.86,12.235,12.235,0,0,1,.956,2.06c.116.324,1.021,3.96.45,6.054a16.831,16.831,0,0,1-2.788,5.577A10.2,10.2,0,0,1,34.5,27.272,10.987,10.987,0,0,1,30.456,27.921ZM28.711,8.12a16.858,16.858,0,0,0-4.127.465,10.143,10.143,0,0,0-6.919,5.7,5.292,5.292,0,0,0,.047,1.874,13.938,13.938,0,0,0,3.608,1.828,12.585,12.585,0,0,0,3.982.658,11.848,11.848,0,0,0,1.367-.079c.212-.263.427-.563.655-.881.84-1.173,1.792-2.5,3.1-2.692a2.387,2.387,0,0,1,.341-.025,4.115,4.115,0,0,1,2.646,1.477,8.07,8.07,0,0,0,1.406,1.129c.076.043.163.089.266.138a5.522,5.522,0,0,0,2.7-.844,2.975,2.975,0,0,0,1.275-2.193c-.042-.17-.087-.34-.134-.5a10.871,10.871,0,0,0-1.516-3.315,5.3,5.3,0,0,0-2.34-1.942,12.325,12.325,0,0,0-3.346-.63l-.264-.025C30.463,8.167,29.562,8.12,28.711,8.12Z" transform="translate(0)"/>
        </g>
      </g>
      <g id="openpeeps_peep-06" data-name="openpeeps / peep-06" transform="translate(101.742 18.644)">
        <g id="BODY-3" data-name="BODY" transform="translate(2.44 64.441)">
          <path id="_Background-5" data-name="ðŸŽ¨ Background" d="M111.723,101.383c-.364-3.382-.588-6.788-.717-10.187s.04-6.832.113-10.229a204.711,204.711,0,0,0-.155-20.734,92.523,92.523,0,0,0-3.6-19.259,49.1,49.1,0,0,0-3.391-9.044c-1.516-2.834-3.918-4.722-6.556-6.453-2.809-1.843-5.6-3.721-8.393-5.581-2.349-1.561-6.575-3.378-8.5-5.466-2.028-2.2-2.409-7.64-3.759-10.242C75.453,1.655,71.73,0,68.864,0,64.12,0,60.525-.24,56.624,4.15c-1.946,2.191-.4,4.4-2.438,6.507-1.876,1.933-6.672,3.919-9.09,5.041-2.9,1.343-5.864,2.529-8.875,3.586-3.072,1.078-6.221,1.881-9.311,2.9-2.961.975-6.828,4.994-9.126,7.12-2.137,1.977-2.668,1.756-4.292,4.157A143.981,143.981,0,0,0,3.517,49.767a32.2,32.2,0,0,0-3.3,8.989A23.066,23.066,0,0,0,1.1,68.637c.9,3.318,3.773,6.476,4.708,9.785.431,1.525-1.048,3.189-.368,4.626A10.581,10.581,0,0,0,6.7,85.031c.375.482,1.839.375,2.028.965s-.867,1.832-.883,2.448c-.022.882-.057,1.764-.086,2.647l-.171,5.216-.337,10.282a11.7,11.7,0,0,0,.178,3.273,2.373,2.373,0,0,1-.273-.3c-.246-.321-.768-.049-.559.327a3.481,3.481,0,0,0,1.438,1.385c.684,1.009,104.283,3.262,104.792.313.286-1.655-.235-3.427-.443-5.071C112.165,104.806,111.908,103.1,111.723,101.383Z" transform="translate(0.751 0)" fill="#fff"/>
          <path id="_Ink-10" data-name="ðŸ– Ink" d="M115.188,110.514a1.115,1.115,0,0,1-.788-.307,3.049,3.049,0,0,1-.729-1.872c-.015-.1-.029-.2-.045-.295-.106-.659-.211-1.328-.32-2.044-.226-1.478-.44-2.954-.633-4.386-.376-2.772-.7-5.648-.963-8.546a9.448,9.448,0,0,0-.3-1.942,7.332,7.332,0,0,1-.194-2.084c-.045-1.779-.05-3.143-.015-4.421.007-.254.01-.519.013-.775.005-.5.011-1.022.049-1.532-.432.059-.873.111-1.3.161-.331.039-.673.079-1.009.123-.316.041-.638.1-.979.158a12.041,12.041,0,0,1-2.025.24c-.125,0-.247,0-.362-.013.126,1.342.264,1.524.41,1.717s.3.4.472,1.69c.4,3.028.877,6.244,1.538,10.428.251,1.594.542,3.209.823,4.77.278,1.544.565,3.14.814,4.714a2.39,2.39,0,0,1,.15,1.723,1.476,1.476,0,0,1-1.438,1.016,1.507,1.507,0,0,1-.348-.04.761.761,0,0,1-.516.931l-.275.076a7.136,7.136,0,0,1-1.955.355H105.2c-.512-.008-1.033-.03-1.537-.052h0l-.553-.023c-1.414-.054-2.852-.058-4.242-.062h-.246l-4.947-.015h-.4l-3.333-.01L74.3,110.151l-1.8-.005-13.835-.039-1.293,0c-4.675-.013-9.508-.027-14.268-.052-2.668-.014-5.282-.03-7.93-.081-1.822-.034-3.6-.082-5.384-.284-.21.072-.4.135-.588.192a1.711,1.711,0,0,1-.516.083,1.906,1.906,0,0,1-1.738-1.8,9.876,9.876,0,0,1,.183-3.757c.072-.281.156-.556.249-.818a3.3,3.3,0,0,1-.054-.4c-.021-.305-.027-.618-.034-.921v-.005c0-.137-.006-.273-.01-.41-.02-.659-.036-1.329-.052-1.977-.008-.332-.016-.661-.025-.991-.047-1.9-.072-3.8-.075-5.642,0-2.627.036-5.258.12-7.821-.219.008-.437.012-.666.012-.621,0-1.252-.028-1.861-.054-.248-.011-.5-.022-.752-.031-1.441-.052-2.914-.145-4.38-.277a78.8,78.8,0,0,1-8.635-1.276l-.151-.031c-.321-.066-.652-.133-.976-.21.034.482.028.973.021,1.447,0,.146,0,.289,0,.429q0,.313,0,.625v.045c0,.85-.008,1.73-.025,2.6-.027,1.332-.063,2.686-.1,4v0q-.03,1.118-.058,2.237c-.021.838-.044,1.689-.066,2.513v.02c-.034,1.264-.07,2.57-.1,3.855-.022,1.033-.04,2.084-.054,3.123,0,.218,0,.444.005.662a5.43,5.43,0,0,1-.389,2.647,1.221,1.221,0,0,1-1.106.613,1.123,1.123,0,0,1-1.056-.613,5.477,5.477,0,0,1-.3-2.726v0c.011-.19.022-.386.029-.578.045-1.218.089-2.288.134-3.271.111-2.463.229-4.493.372-6.389.176-2.342.371-4.43.594-6.384.12-1.055.274-2.121.424-3.153l.006-.043q.022-.15.044-.3l0-.012c.055-.379.111-.77.187-1.154a1.329,1.329,0,0,1,.089-.6,4.8,4.8,0,0,1-1.153-.653A4.043,4.043,0,0,1,5.936,80.13a7.609,7.609,0,0,1-.081-2.915c.064-.467.13-.923.236-1.376a.941.941,0,0,1-.412-.126,5.414,5.414,0,0,1-1.87-2.394l-.064-.123c-.431-.836-.838-1.723-1.244-2.712A32.666,32.666,0,0,1,.783,64.976,33.606,33.606,0,0,1,2.826,44.217a47.575,47.575,0,0,1,6.341-9.886,72.028,72.028,0,0,1,8.44-8.879.167.167,0,0,1,.112-.047.16.16,0,0,1,.142.094.166.166,0,0,1-.025.181c-.171.211-.357.443-.586.733.271-.057.534-.1.78-.143a18.654,18.654,0,0,1,6.893-6.319,58.294,58.294,0,0,1,11.94-4.611c2.6-.789,5.282-1.6,7.829-2.641a25.815,25.815,0,0,0,7.914-4.813,17.252,17.252,0,0,0,2.849-3.3,14.954,14.954,0,0,0,1.073-1.95c.118-.262.22-.532.318-.793A8.278,8.278,0,0,1,57.4.588,1.162,1.162,0,0,1,58.432,0a1.315,1.315,0,0,1,.934.381,1.129,1.129,0,0,1,.326.828,10.121,10.121,0,0,1-1.983,4.949,19.456,19.456,0,0,1-3.49,3.982C49.061,14.635,42.4,16.458,35.967,18.22l-.028.008-.766.21a55.4,55.4,0,0,0-9.46,3.34,29.838,29.838,0,0,0-6.677,4.354c.164-.019.542-.028,1.092-.028,1.736,0,5.188.09,8.526.177l.084,0c3.38.088,6.872.18,8.622.18.3,0,.54,0,.724-.008,5.181-.15,10.526-.223,16.343-.223,4.628,0,9.507.047,14.914.143,5.122.09,10.353.229,15.547.412,2.545.09,5.136.194,7.921.317,1.384.061,2.655.12,3.883.182.228.011.46.019.684.027.333.012.676.024,1.013.045a11.154,11.154,0,0,1,3.164-.436,13.353,13.353,0,0,1,1.354.07,28.062,28.062,0,0,0-3.168-2.563,49.584,49.584,0,0,0-6.96-3.763,46.55,46.55,0,0,1-7.368-4.051,18.554,18.554,0,0,1-4.853-5.059A11.7,11.7,0,0,1,78.6,4.912a.124.124,0,0,1,.128-.117.1.1,0,0,1,.106.086A12.719,12.719,0,0,0,82.8,11.664a32.2,32.2,0,0,0,5.7,4.14c1.7.951,3.469,1.821,5.184,2.662.687.337,1.4.686,2.094,1.035a38.424,38.424,0,0,1,6.829,4.221,35.72,35.72,0,0,1,3.032,2.726c.167.166.343.334.53.511a15.308,15.308,0,0,1,1.225,1.255c.036.014.062.026.084.037a14.846,14.846,0,0,1,7.158,7.833A32.509,32.509,0,0,1,117.029,46.7c.052.7.085,1.414.1,2.129a52.188,52.188,0,0,1,.766,10.186,36.912,36.912,0,0,1-1.161,8.809,20.958,20.958,0,0,1-3.521,7.533,5.168,5.168,0,0,1,.726,2.071c.019.1.038.192.058.284l.048.226,0,.013a6,6,0,0,1,.176,2.577,2.213,2.213,0,0,1-1.921,1.621h-.008c-.041.007-.079.014-.118.02.083.475.139.964.193,1.437.032.28.065.567.1.841.205,1.48.382,2.977.538,4.3a4.376,4.376,0,0,0,.515,2.014,4.395,4.395,0,0,1,.518,2.013c.31,2.58.676,5.346,1.121,8.456.206,1.437.429,2.91.665,4.377.106.654.219,1.349.336,2.04.012.073.025.145.037.216l0,.013a3.21,3.21,0,0,1-.107,2.113A.964.964,0,0,1,115.188,110.514ZM7.034,75.434a.926.926,0,0,1-.2.19c-.017.168-.038.338-.058.5a10.829,10.829,0,0,0-.105,1.294,5.779,5.779,0,0,0,.476,2.6A3.609,3.609,0,0,0,9.53,81.728a16.421,16.421,0,0,0,2.317.435c.313.043.609.084.884.13,2.485.418,5.039.728,7.593.922,1.285.1,2.612.166,3.943.2.162,0,.332.006.52.006.331,0,.668-.006.994-.013s.662-.013.992-.013c.2,0,.382,0,.554.007.071-1.722.162-3.446.271-5.123a.879.879,0,0,1-.355.071l-.08,0c-3.042-.212-7.055-.529-11.129-1.1-1.974-.277-3.855-.605-5.591-.975-1.06-.224-2.262-.478-3.409-.841Zm97.958.2h0c.124,1.719.248,3.312.381,4.87a8.884,8.884,0,0,1,1.814-.22c.242-.013.492-.026.729-.047l1.78-.155.752-.065c.167-.014.338-.026.5-.038.276-.02.561-.04.839-.07l.095-.009a.528.528,0,0,0,.416-.152,1.161,1.161,0,0,0,.028-.659c-.008-.061-.014-.112-.017-.154-.03-.394-.074-.787-.131-1.168q-.014-.094-.027-.189v-.007a9.188,9.188,0,0,0-.177-1,1.37,1.37,0,0,0-.053-.166,1.623,1.623,0,0,1-.341.036,2,2,0,0,1-1.276-.489c-.225-.012-.455-.022-.677-.032-.274-.012-.554-.024-.831-.04-.354-.02-.72-.034-1.074-.047a25.566,25.566,0,0,1-2.733-.2ZM7.82,55.362a.6.6,0,0,0-.583.412,13.548,13.548,0,0,0-.558,6.1,24.261,24.261,0,0,0,1.6,5.974.624.624,0,0,0,.6.4A.631.631,0,0,0,9.4,68a.483.483,0,0,0,.033-.471c-1.8-4.548-2.137-8.29-1.037-11.44a.506.506,0,0,0-.052-.482A.642.642,0,0,0,7.82,55.362Zm5.516,7.428a.615.615,0,0,0-.439.172.552.552,0,0,0-.151.407,7.121,7.121,0,0,0,1.119,3.762.572.572,0,0,0,.492.279.672.672,0,0,0,.578-.334.522.522,0,0,0-.034-.551,5.9,5.9,0,0,1-.955-3.156A.578.578,0,0,0,13.336,62.79Z" transform="translate(0 2.989)"/>
        </g>
        <g id="HEAD-3" data-name="HEAD" transform="translate(33.502 2.132)">
          <path id="_Background-6" data-name="ðŸŽ¨ Background" d="M34.452.088c8.52,0,19.191,9.723,22.314,13.86,2.626,3.479,2.254,21.4,2.254,32.029,0,2.223-1,6.431-1.369,8.558-1.336,7.793-7.159,14.329-18.682,14.329-9.383,0-16.6-2.973-23.586-10.578-1.593-1.735-9.373,4.476-10.964,2.239-4.156,0-7.631-38.845.529-50.5S25.932.088,34.452.088Z" transform="translate(4.347 3.661)" fill="#fff"/>
          <path id="_Ink-11" data-name="ðŸ– Ink" d="M20.241,81.015a1.511,1.511,0,0,1-1.506-1.068c-.073-.343-.154-.69-.243-1.034-.165-.639-.353-1.27-.559-1.876l-.08-.231c-.086-.244-.17-.494-.251-.735-.089-.264-.18-.535-.274-.8l-.018-.059c-.006-.018-.011-.039-.017-.061l0-.018-.3.665L16.056,77.8a.81.81,0,0,1-.766.5,1.112,1.112,0,0,1-1.095-.974V77.3c-.005-.187-.012-.349-.021-.5a16.074,16.074,0,0,0-.614-3.584l-.121.15c-1.695,2.1-3.832,4.31-6.832,4.842a.954.954,0,0,1-.166.014,1.107,1.107,0,0,1-.948-.556.775.775,0,0,1,.061-.829c.21-.309.41-.623.6-.934-.163-.076-.319-.156-.461-.237a9.172,9.172,0,0,1-2.781-2.5A13.08,13.08,0,0,1,.58,65.756a25.879,25.879,0,0,1,.848-8.343,21.057,21.057,0,0,1,1.282-3.332c-.036-.1-.071-.192-.105-.288a43.571,43.571,0,0,1-1.382-4.708A45.876,45.876,0,0,1,.005,39.248,46.552,46.552,0,0,1,3.086,21.8,40.6,40.6,0,0,1,13.192,6.485,25.719,25.719,0,0,1,30.608,0c.226,0,.456,0,.682.008A33.322,33.322,0,0,1,41.37,1.862a30.217,30.217,0,0,1,4.686,2.123A11.7,11.7,0,0,1,47.573,5l.12.093A10.257,10.257,0,0,1,51.17,7.359c.479-.038.959-.058,1.427-.058a15.712,15.712,0,0,1,4.781.722,16.047,16.047,0,0,1,3.987,1.9A13.749,13.749,0,0,1,64.614,12.9,12.086,12.086,0,0,1,66.8,17.351a15.3,15.3,0,0,1,.4,4.965l-.047.578c-.271,3.272-.762,6.925-3.163,8.847a1.908,1.908,0,0,1-.609.333,34.946,34.946,0,0,1,3.674,8.8,44.774,44.774,0,0,1,1.308,8.818,56,56,0,0,1-.295,8.872,89.547,89.547,0,0,1-3.907,17.374,1.642,1.642,0,0,1-1.5,1.08,1.123,1.123,0,0,1-.91-.444,7.9,7.9,0,0,0-5.2-3.083,12.376,12.376,0,0,0-1.238-.054,5.711,5.711,0,0,1-2.535-.412,3.44,3.44,0,0,1-1.265-1.062,16.277,16.277,0,0,1-5.789,1.066c-.215,0-.433,0-.647-.013A14.063,14.063,0,0,1,35.185,68.9a1.546,1.546,0,0,1-.405-1.372,5.359,5.359,0,0,1,.954-.244A21.115,21.115,0,0,0,46.023,70.44c.133,0,.265,0,.393,0a8.714,8.714,0,0,0,5.577-1.6,8.527,8.527,0,0,0,1.041-.955,16.368,16.368,0,0,0,4.611-4.562,20.861,20.861,0,0,0,2.8-6c1.166-4.077.98-8.256.6-12.164l-.206-2.146c-.289-3.035-.577-6.267-.656-9.475h.024a.615.615,0,0,0,.577-.661.52.52,0,0,0-.531-.541l-.046,0c-.32.021-.654.031-1.02.031-.643,0-1.294-.031-1.924-.062s-1.277-.061-1.916-.061c-.4,0-.767.012-1.114.037a10.175,10.175,0,0,0-.361-2.79.663.663,0,0,0-.636-.428.494.494,0,0,0-.521.428,18.16,18.16,0,0,0-.189,2.494c-1.114-.015-2.246-.06-3.341-.1-1.342-.053-2.729-.109-4.093-.109-.534,0-1.027.008-1.509.025a4.4,4.4,0,0,1-.792-1.744c-.064-.217-.124-.422-.19-.608-.033-.094-.069-.2-.114-.318a17.1,17.1,0,0,1-.968,3.037l-.731,0A61.73,61.73,0,0,0,28.353,33.18a1.459,1.459,0,0,1-.494-.936A32.247,32.247,0,0,0,26.4,25.718l-.107-.3-.015-.043-.013-.037a16.23,16.23,0,0,1-1.914,2.477c-.392.422-.821.85-1.312,1.306-.214.238-.436.478-.65.71s-.458.5-.684.748c.019.1.034.187.045.271a13.515,13.515,0,0,1,.05,3.065,14.68,14.68,0,0,1-1.534,5.261l-.026.164a5.066,5.066,0,0,1-.729,2.145,5.457,5.457,0,0,1,1.166,2.077.687.687,0,0,1-.116.619.828.828,0,0,1-.647.337.638.638,0,0,1-.49-.227A5.837,5.837,0,0,0,18.1,43.167a.106.106,0,0,1-.085.045.127.127,0,0,1-.063-.018,4.413,4.413,0,0,0-2.119-.464,6.479,6.479,0,0,0-2.868.648,4.334,4.334,0,0,0-2.145,4.5c.17,1.655.895,3.752,2.419,4.673a2.184,2.184,0,0,0,1.17.364,2.846,2.846,0,0,0,.758-.116,2.18,2.18,0,0,0,.638-.35l.121-.1a2.383,2.383,0,0,1,1.469-.639,1.216,1.216,0,0,1,.362-.056,1.041,1.041,0,0,1,1,.724l.013.038c.018.054.039.111.061.171a2.24,2.24,0,0,1,.187.983,2.2,2.2,0,0,1-.61,1.316c-.062.066-.124.128-.186.185a20.635,20.635,0,0,1,5.134,11.5,26.083,26.083,0,0,1,.007,6.455,26.711,26.711,0,0,1-1.53,6.235c-.119.319-.255.657-.415,1.033A1.225,1.225,0,0,1,20.241,81.015ZM9.934,57.954a.675.675,0,0,0-.572.324.519.519,0,0,0,.014.539l.014.023A11.573,11.573,0,0,1,10.534,61.6c.058.184.118.373.179.559a.581.581,0,0,0,.574.416.648.648,0,0,0,.522-.249.518.518,0,0,0,.061-.487l-.081-.247-.1-.328,0-.006a12.711,12.711,0,0,0-1.257-3.021A.57.57,0,0,0,9.934,57.954Zm4.442-44.269h0a.6.6,0,0,0-.4.158c-2.039,1.8-3.055,4.4-4.038,6.912-.287.732-.582,1.489-.9,2.2a.619.619,0,0,0,.049.6.68.68,0,0,0,.546.316.473.473,0,0,0,.442-.314c.313-.712.607-1.473.892-2.21.924-2.392,1.879-4.865,3.768-6.582l.087-.078a.508.508,0,0,0,.159-.582.676.676,0,0,0-.61-.426Zm31.871,0h0a.681.681,0,0,0-.638.522.478.478,0,0,0,.272.562l.025.012c2.3,1.038,3.281,3.335,4.233,5.556l.046.108a.468.468,0,0,0,.439.315.681.681,0,0,0,.544-.314.624.624,0,0,0,.054-.606l-.172-.4c-1-2.294-2.166-4.623-4.538-5.7a.641.641,0,0,0-.265-.059Zm3.723-1.421h0a.547.547,0,0,0-.52.493.612.612,0,0,0,.4.7,9.276,9.276,0,0,1,4.482,3.874.587.587,0,0,0,.5.271.68.68,0,0,0,.584-.337.507.507,0,0,0-.046-.54,10.359,10.359,0,0,0-5.2-4.427.619.619,0,0,0-.2-.036ZM17.54,49.638a1.682,1.682,0,0,1-.34-.035c-.8-.166-1.137-.751-1.5-1.371-.105-.182-.214-.369-.335-.546l-.091-.13-.076-.111a2.87,2.87,0,0,0-1.184-1.176.184.184,0,0,1-.118-.161.135.135,0,0,1,.079-.135l.271-.131a3.986,3.986,0,0,1,1.706-.493,2.69,2.69,0,0,1,.906.164,3.458,3.458,0,0,1,2.065,1.893,1.746,1.746,0,0,1-.179,1.567A1.392,1.392,0,0,1,17.54,49.638Z" transform="translate(0 0)"/>
        </g>
        <g id="FACE-3" data-name="FACE" transform="translate(65.612 35.757)">
          <path id="_Ink-12" data-name="ðŸ– Ink" d="M16.211,28.793a5.708,5.708,0,0,1-2.167-.433,6.081,6.081,0,0,1-2.567-1.975,1.19,1.19,0,0,1-.24-.922,1.328,1.328,0,0,1,.516-.832,1.277,1.277,0,0,1,.759-.264,1.1,1.1,0,0,1,.169.013,1.171,1.171,0,0,1,.784.518l.046.064a4.047,4.047,0,0,0,1.482,1.244,3.362,3.362,0,0,0,1.469.343,3.255,3.255,0,0,0,.365-.021,4.883,4.883,0,0,0,2.988-1.713c.1-.106.214-.221.337-.353a.531.531,0,0,1,.28-.215.577.577,0,0,1,.182-.029.617.617,0,0,1,.507.265.562.562,0,0,1,.1.372,3.83,3.83,0,0,1-1.271,2.437,5.628,5.628,0,0,1-2.768,1.415A5.357,5.357,0,0,1,16.211,28.793Zm1.526-8.644h0a7.033,7.033,0,0,1-4.064-1.624.894.894,0,0,1-.263-1.035,1.087,1.087,0,0,1,.946-.76.818.818,0,0,1,.446.137l.15.116a5.674,5.674,0,0,0,3.024,1.483,1.805,1.805,0,0,0,1.345-.6,1.99,1.99,0,0,0,.377-1.6,4.364,4.364,0,0,0-2.018-2.4.378.378,0,0,1-.1-.434.56.56,0,0,1,.545-.387.764.764,0,0,1,.129.011,3.6,3.6,0,0,1,2.4,1.407,3.533,3.533,0,0,1,.615,2.36,3.767,3.767,0,0,1-1.025,2.3A3.394,3.394,0,0,1,17.737,20.149ZM5.582,11.708A1.258,1.258,0,0,1,4.37,10.6a9.025,9.025,0,0,1,.048-2.349c.028-.228.058-.464.078-.719a1.405,1.405,0,0,1,.532-1.005,1.641,1.641,0,0,1,1.009-.355,1.129,1.129,0,0,1,1.185.991,6.3,6.3,0,0,1-.658,3.885A1.086,1.086,0,0,1,5.582,11.708Zm17.841-.533a1.071,1.071,0,0,1-.84-.36,3.619,3.619,0,0,1-.774-1.92,2.224,2.224,0,0,1,.606-1.909,1.235,1.235,0,0,1,.1-.148,1.373,1.373,0,0,1,1.056-.608,1.144,1.144,0,0,1,.321.047,1.546,1.546,0,0,1,1.032.9,4.607,4.607,0,0,1-.4,3.386A1.233,1.233,0,0,1,23.423,11.175ZM.2,5.578a.2.2,0,0,1-.163-.1.217.217,0,0,1-.013-.213A8.8,8.8,0,0,1,3.9,1.646,9.543,9.543,0,0,1,6.541.725L6.823.676A6.846,6.846,0,0,1,7.973.551a1.78,1.78,0,0,1,1.421.53,1.209,1.209,0,0,1,.285.858.786.786,0,0,1-.285.561,2.19,2.19,0,0,1-1.5.44c-.119,0-.236,0-.36-.006H7.512c-.115,0-.233-.005-.352-.005s-.223,0-.32.008a10.146,10.146,0,0,0-2.233.381A15.161,15.161,0,0,0,.3,5.544.185.185,0,0,1,.2,5.578ZM27.362,4.441h0l-.014,0-.1-.027a6.656,6.656,0,0,1-1.3-.508l-.423-.208a11.711,11.711,0,0,0-1.51-.644,17.818,17.818,0,0,0-3.441-.761,1.4,1.4,0,0,1-.69-.261,1.038,1.038,0,0,1-.386-.589,1.052,1.052,0,0,1,.119-.881,1.122,1.122,0,0,1,.545-.47A1.225,1.225,0,0,1,20.618,0a1.373,1.373,0,0,1,.268.027L21.1.071a15.4,15.4,0,0,1,3.716,1.208,5.812,5.812,0,0,1,2.79,2.569c.044.337-.006.4-.039.442l-.012.015-.011.014a.3.3,0,0,1-.184.123Z" transform="translate(0 0)"/>
        </g>
        <g id="ACCESORIES-2" data-name="ACCESORIES" transform="translate(41.005 38.909)">
          <path id="_Ink-13" data-name="ðŸ– Ink" d="M29.528,16.189h0a7.644,7.644,0,0,1-5.217-1.91,7.852,7.852,0,0,1-1.839-2.517,11.412,11.412,0,0,1-.97-3.675c-.17-1.449-.562-1.562-1.61-1.861-.187-.053-.4-.114-.632-.189l-.213-.044c-.222-.045-.451-.091-.676-.156a.963.963,0,0,1-.305.054c-.322,0-.548-.2-.86-.476a6.648,6.648,0,0,0-.527-.432,5.547,5.547,0,0,0-3.49-.907c-2.681,0-6.645.941-11.782,2.8C1.4,7.359,1.148,7.7.8,7.7a.657.657,0,0,1-.375-.13A1.6,1.6,0,0,1,.155,5.817c.762-1.5,4.2-2.39,6.944-2.871a56.3,56.3,0,0,1,8.582-.794c.2,0,.387,0,.544.009A4.284,4.284,0,0,1,17.4,1.955a1.69,1.69,0,0,1,.628.109c1.416-1.14,5.585-2,9.7-2A23.036,23.036,0,0,1,33.45.718,8.306,8.306,0,0,1,37.606,2.94a6.173,6.173,0,0,0,1.881.292A12.106,12.106,0,0,0,44.536,1.7a21.29,21.29,0,0,1,3-1.231A35.154,35.154,0,0,1,53.233,0a15.69,15.69,0,0,1,4.2.453c1.293.375,1.986.978,2.058,1.794a4.064,4.064,0,0,1-.186,2.5.381.381,0,0,1-.314.206.557.557,0,0,1-.342-.156c-1.441,1.087-1.829,2.7-2.241,4.406a9.675,9.675,0,0,1-1.447,3.693,4.551,4.551,0,0,1-1.786,1.478,5.7,5.7,0,0,1-2.437.536,6.508,6.508,0,0,1-4.694-2.078,9.126,9.126,0,0,1-1.807-2.819,14.772,14.772,0,0,1-1.013-4.2,3.683,3.683,0,0,0-1.391-.262,8.562,8.562,0,0,0-1.506.178,10.613,10.613,0,0,1-1.293.177,8.787,8.787,0,0,1-.311,3.839,8.578,8.578,0,0,1-1.745,3.073,10.105,10.105,0,0,1-7.449,3.376ZM30.653,2.973c-2.426,0-5.688.521-7.456,3a2.979,2.979,0,0,0-.332,2.537c1.536,5.2,4.4,6.287,6.535,6.287a8.025,8.025,0,0,0,2.146-.316A8.382,8.382,0,0,0,35.625,11.9a7.4,7.4,0,0,0,1.862-4.4,4.69,4.69,0,0,0-1.328-3.7A18.973,18.973,0,0,0,30.653,2.973ZM51.576,2.01a5.467,5.467,0,0,0-1.424.189,7,7,0,0,0-3.144,1.813,6.825,6.825,0,0,0-1.866,3.6,4.941,4.941,0,0,0,.1,1.919,3.719,3.719,0,0,0,.668,1.546,7.832,7.832,0,0,0,5.265,2.546,3.751,3.751,0,0,0,1.643-.354c2.444-1.311,2.961-4.864,3.3-7.215a3.033,3.033,0,0,0-.773-2.433A5,5,0,0,0,51.576,2.01Z" transform="translate(0 0)"/>
        </g>
      </g>
    </g>
    <g id="info" transform="translate(7469 6177)">
      <text id="DJ_Night_Hawa" data-name="DJ Night Hawa" transform="translate(1197 46)" fill="#18191f" font-size="42" font-family="Montserrat-ExtraBold, Montserrat" font-weight="800"><tspan x="-204.75" y="0">Start with Livecon</tspan></text>
    </g>
  </g>
</svg>
